<svg xmlns="http://www.w3.org/2000/svg" viewBox="0 0 827.79 926.85"><defs><style>.cls-1{fill:#f9f9f9;}.cls-2{fill:#fbd448;}.cls-3{fill:#e63e31;}</style></defs><title>Recurso 26</title><g id="Capa_2" data-name="Capa 2"><g id="Capa_1-2" data-name="Capa 1"><path class="cls-1" d="M317.35,926.84c-27.84-3-50.11-16-66.66-38.41-11.39-15.42-18.56-33-22.38-51.72-9.52-46.66-9.86-93,6.37-138.52a109.53,109.53,0,0,1,27-42.63c17.29-16.65,38.12-26.46,62.47-27.32,40.12-1.42,69.27,16.63,88.28,51.35,12,21.92,17.06,45.92,18.77,70.66,1.89,27.3,1.35,54.5-4.5,81.39-4.64,21.32-11.76,41.71-25.76,58.74-17.05,20.74-38.35,34.56-66,36.47m-6.34-249c-12.19,0-21.14,5-27.84,13.73-9.91,13-15.35,27.67-17.4,44-4.18,33.16-4.44,66.08,3.37,98.77,2.75,11.5,7.5,22.14,15.41,31,12,13.42,33.73,18.87,50.08.26a60.79,60.79,0,0,0,9.63-15.07c9.95-21.75,11.52-45,12.53-68.39A225.79,225.79,0,0,0,372.51,744c-1.89-14.91-4.67-29.72-11.85-43.19C353.65,687.63,343.75,678.31,328.62,677.81Z"/><path class="cls-1" d="M74.81,867.63H177.33c2.83,0,5.67.1,8.49,0,2.18-.11,2.82.68,2.81,2.86-.09,14.66-.12,29.32,0,44,0,3.63-2.23,3-4.31,3H135.86c-43.14,0-86.29,0-129.44.11-4,0-5-1-4.91-4.94q.44-16.24,0-32.49c-.1-4,1.24-6.77,3.84-9.69,31.16-35.09,63.1-69.48,93.43-105.3,11.21-13.23,21.13-27.33,25.38-44.68,5.09-20.76-4.15-37.14-24-41.94C85,674.76,68.71,683,61.92,697c-2.92,6-4.52,12.07-4.09,18.64.19,3-.95,3.51-3.66,3.5-16.83-.12-33.65-.09-50.48,0-2.23,0-3.81,0-3.68-3.06,1.31-30.13,11.61-55.69,37.44-73.14,14.44-9.77,30.85-13.62,48.07-14.55,18.45-1,36.44.85,53.53,8.48C170.7,651,186.09,680,184.19,713c-1.42,24.58-12.25,44.92-26.68,63.85-19.84,26-43.68,48.42-65.64,72.52C86.52,855.2,81.05,861,74.81,867.63Z"/><path class="cls-1" d="M570.84,917.39c-29.49,0-59-.07-88.46.09-3.84,0-5.06-.84-4.95-4.88.3-11.32.17-22.65.05-34A9,9,0,0,1,480,872q46.43-51.93,92.67-104C582.35,757,591,745,596.83,731.6c4.95-11.41,7.21-23.7,1.78-36.15-9.3-21.31-41.72-23.1-55.19-6.66a43.39,43.39,0,0,0-9.71,26.14c-.15,3-.72,4.31-4.2,4.26-16.65-.2-33.31-.17-50,0-3.39,0-4-.8-3.66-4.24.92-8.75,2-17.44,4.5-25.9,10.32-34.31,33.77-53.68,68.64-59.26,24.26-3.88,48.17-2.24,70.48,9.25,23,11.89,36.41,31,40.13,56.63,3.68,25.45-4,48.13-17.64,69.16-14.15,21.76-32.27,40.16-50.07,58.84-12.81,13.44-25.39,27.1-38.06,40.67-.64.69-1.69,1.39-1,2.5.89,1.38,2.42.79,3.66.79q27,.06,54,0c16.5,0,33,.1,49.48-.08,3.37,0,4.54.59,4.48,4.27q-.37,20.48,0,41c.08,3.82-1,4.69-4.69,4.67C630.14,917.31,600.49,917.38,570.84,917.39Z"/><path class="cls-1" d="M805.52,776.21c0,44.49-.06,89,.1,133.47,0,4.2-1.12,5.19-5.25,5.12q-23-.42-46,0c-4.34.08-5.11-1.36-5.1-5.33.11-72.81,0-145.63.2-218.44,0-4.76-1-6.25-5.94-6.06-10.15.4-20.33,0-30.49.21-3.18.07-3.82-.89-3.78-3.9q.27-20,0-40c0-3.14.82-3.86,3.89-3.84,29.32.12,58.65.16,88-.05,4.06,0,4.47,1.41,4.46,4.85Q805.43,709.22,805.52,776.21Z"/><path class="cls-2" d="M819.84,328.93c-8.83-33.7-29.32-60-55.61-82.1a312.31,312.31,0,0,0-29.37-22.33c-2.43-1.59-4.28-3.35-2.68-7q22.86-51.79,45.47-103.7l44.4-101.48.57-1.26a1.72,1.72,0,0,0,.21-.7c3.07-2.72,3.77-6.51,4.66-10.22C826,.11,824.51,0,823,0H435.59c-1.66,0-3.32.11-5,.17.09,1.33.19,2.65.28,4,0,11.8-.14,23.61-.13,35.41q0,44.14.15,88.28c.63,4.49,4.2,2.94,6.62,2.95q96.57.12,193.14,0c3.15,0,6.28-.06,9.44-.34,2.18-.19,6.16-1.61,6.11,3.27-14.89,22-28.4,45-42.63,67.42-16.57,26.12-32.81,52.44-49.22,78.66-3.09,4.92-2.91,5.4,3,6.05q12.14,1.32,24.29,2.59c17.52,1.84,35.05,3.52,52.55,5.56,12.42,1.45,24,5.42,34,13.16,20.12,15.57,29.25,37.16,30,61.6.72,23.74-9.89,43.49-28.57,58.28-22.8,18-53.2,19.16-77.94,5.93-16.92-9.05-28-23.72-37.33-39.9-2.35-4.08-4.49-4.74-8.74-2.76-14.48,6.76-29.12,13.15-43.72,19.63q-33.29,14.79-66.62,29.47c-3.56,1.56-4,3.3-2.55,6.92,11.39,28.62,28,53.54,51.43,73.74a201.48,201.48,0,0,0,68.22,38.51,242.92,242.92,0,0,0,56.05,11.47c21.19,1.87,42.21,1.18,63-3.42a208.56,208.56,0,0,0,70-29.25c19.21-12.61,36.25-27.46,50.32-45.75,14.18-18.44,25.05-38.51,30.7-61.1C831,396.51,828.63,362.47,819.84,328.93Z"/><path class="cls-3" d="M481.63,568.74h0c-4.25-1.84-8.53-3.59-12.73-5.55-26.43-12.33-48-30.34-63.81-55a143.91,143.91,0,0,1-21.44-59.61c-.94-7.07-1-7-8-7q-101.46,0-202.91.09c-4.56,0-5.84-1.16-5.8-5.8q.34-40,0-80c0-4.29,1-5.63,5.5-5.61q92,.24,183.92.11c7.66,0,15.32-.08,23,.05,2.57,0,3.45-.79,3.44-3.42q-.17-62.46-.2-124.94c-.89-3.38-3.61-1.62-5.36-1.62q-102-.15-203.92-.1c-2.15,0-4.35.35-6.39-.69,0-1.21,0-2.42,0-3.64a34.62,34.62,0,0,0,.43-3.91q0-37.72,0-75.45c0-6.53,0-6.53,6.3-6.53q101.93,0,203.84.13c4.47,0,5.48-1.17,5.45-5.52-.22-25.64-.08-51.29-.11-76.94,0-15.65-.14-31.3-.21-46.95h0a.91.91,0,0,0,0-.61c-1.66-.06-3.32-.17-5-.17H8.76c-1.66,0-3.32.1-5,.16a1.15,1.15,0,0,0,0,.71c-.06,1.83-.17,3.65-.17,5.48q0,278.13,0,556.25c0,2.33,0,4.66,0,7,0,1.36.55,2.28,2.18,1.69l2-.07a4.59,4.59,0,0,0,3.82,0c2.15.09,4.31.25,6.47.25q215.81,0,431.6,0c1.66,0,3.32-.15,5-.23a16.8,16.8,0,0,0,7.82,0l3.15,0,1.41,0a52.56,52.56,0,0,0,11.56.08l1,0h2.86a9.65,9.65,0,0,0,6.77-.6Z"/></g></g></svg>