<svg xmlns="http://www.w3.org/2000/svg" viewBox="0 0 1239.98 966.68"><defs><style>.cls-1{fill:#050505;}</style></defs><title>Recurso 14</title><g id="Capa_2" data-name="Capa 2"><g id="Capa_1-2" data-name="Capa 1"><path class="cls-1" d="M839.51,380.27c1.88-1.18,4-2.13,5.58-3.63,1.27-1.21,1.92-3.09,2.81-4.68,3.66-6.5,5.52-7.26,13-5.87,9.14,1.7,18.5,2.56,27.42,5,8.48,2.35,18.73,2.06,23.44,12,.87,1.83,1.91,3.88,1.85,5.8-.14,4.16,1.74,5.37,5.43,4.81,2.29-.35,4.83-.31,6.78-1.35,3.93-2.09,6.75-.9,10,1.55C950.45,405,960.28,420,968.68,436c1.13,2.16.92,5.22.76,7.83-.24,4.17.72,7.56,4.42,9.87,3.09,1.93,3.87,4.73,4.28,8.37,1.06,9.35,2.72,18.64,4.47,27.89,3.27,17.32,4.41,34.71,1.68,52.16-.63,4-3.19,7.6-4.6,11.47-.57,1.56-1.25,3.9-.52,5,3.83,5.62,1.84,11.06.13,16.59-2.23,7.23-4.41,14.48-6.76,21.67a97.85,97.85,0,0,1-18.42,33.29c-7.19,8.44-15.51,15.92-23.55,23.59-1.34,1.28-4.27,2.38-5.65,1.76-1.64-.74-2.39-3.43-3.53-5.28q-1.42-2.31-2.83-4.62c-.84,1.62-2.68,3.48-2.35,4.81,1.78,7.24.66,12.09-7.6,14.34-7.11,1.94-13.73,5.61-20.79,7.83-4.86,1.53-10.12,1.75-15.15,2.79-5.7,1.18-10.7.56-13.91-4.9-1.86-3.16-4.46-3.29-7.7-3.07-2.65.17-5.36-.71-8.06-1.06-1.88-.25-3.77-.39-5.66-.58a61.38,61.38,0,0,0,1.28,6.2c.18.59,1.35.89,2.06,1.33-1.83,4.29-5,3.74-7.91,3.75q-33,0-66,0c-2.17,0-4.33.08-6.5.18-7.37.37-9.71-2.5-7.92-9.77.23-.93.48-1.86.89-3.47-4.94,1.79-6.29-1.19-7.84-4.53-1.11-2.38-3.13-4.34-4.74-6.49l-2,.79A39.09,39.09,0,0,0,740,660c.56,1.48,2.1,2.57,2.84,4,4.34,8.53,1.47,13.05-8.29,13-17.17,0-34.33-.12-51.49-.18h-3c-7.43,0-15.37,1.23-18.14-8.71-1.06.53-1.88.65-2.15,1.11-4.38,7.48-11.25,7.9-19,7.74-19.49-.38-39-.07-58.49,0-8.52,0-15.88-3.64-23.46-6.67-4.14,1.81-8.46,4.33-13.12,5.49-3.35.84-7.17-.37-10.76-.24-7.13.27-14.25,1.21-21.37,1.23-31.17.1-62.33,0-93.49-.11-4.27,0-7.42,1.24-8.82,5.68q-7.73,24.45-15.63,48.85a15.53,15.53,0,0,1-2.5,4.83c-1.63,2-3.34,2.81-5.7.28-3.54-3.8-5.77-3.35-8.4,1.21-.9,1.57-2,3.28-2.14,5-.2,2.08.49,4.25.79,6.38,2.09-.32,4.44-.16,6.21-1.09,2.41-1.26,4.56-3.05,5.73.86.86,2.85-3.52,8.37-6.58,8.61a41.66,41.66,0,0,1-7.49.06c-7.18-.76-14.31-2-21.5-2.51-3.35-.25-6.79.53-10.16,1-2.11.32-4.16,1.41-6.24,1.44q-16.5.24-33,0a11.1,11.1,0,0,1-6.11-1.62c-4-2.94-7.85-1.55-11.85-.5-3,.78-6,2-9.06,2.07-8.49.28-17,.2-25.49,0-4.48-.08-6.21,1.82-6.36,6.25-.2,5.64-1.29,11.25-1.43,16.89-.09,3.21,1.37,6.46,1.37,9.69,0,27,.9,54.06-.73,81-.8,13.24-3,27.21-11.34,38.82a4.79,4.79,0,0,0-1.05,2.77c.85,14.07-6.36,25.82-10.9,38.34-1.46,4-2.43,8.26-3.93,12.29-.49,1.29-2,2.21-3,3.3-.8-1.1-1.93-2.1-2.35-3.34-3.49-10.16-7.08-20.31-10.14-30.61a40.54,40.54,0,0,1-1.37-12.24c.19-7.66-2.43-14.06-6.67-20.32-2.4-3.53-3.46-8-4.78-12.22-.69-2.18-.25-4.74-1-6.89-3.8-10.81.21-20.8,2.37-31.14.78-3.72-1.77-8.1-2.63-12.22-1.08-5.13-2.52-10.27-2.86-15.46-.51-8-.09-16-.31-24-.11-4.14.94-7.5,4.37-10,2.65-2,2.42-3.88,1.36-7.17-1.95-6-6.57-11.24-5.19-18.38.71-3.68-2.28-5.2-5.75-5.22-5.33,0-10.67,0-16,0-12,0-23.7-3.39-36-.34-7.54,1.87-15.92.16-23.92.4S89,755.81,83,750.52c-2.71-2.37-12-2.33-14.1.72-4,5.81-10,5.61-15.61,6-5,.35-10.76,2.24-15-2.79a2.3,2.3,0,0,0-2.22-.35c-6.94,6.26-15.33,2.22-23,3.26-1.23.17-2.6-.67-4.47-1.9,9.11-3.11,9.61-11.34,13.18-18,6.48-12.11,15.07-23.1,22.76-34.57q13-19.44,26.06-38.9c5.91-8.81,11.84-17.6,17.91-26.62l3.32,1.5c2.71,1.23,4.73.28,4.14-2.59-2.25-11,5.24-18,10.36-25.92,9.11-14.05,18.6-27.84,27.94-41.74.27-.42.44-1,.83-1.24,9.42-6.06,10.8-17.55,17.29-25.65s12.38-16.42,18.11-24.94c4.78-7.09,9.52-14.32,13.2-22s5.88-16.07,2.45-24.57c-1.68-4.16-1-7.71.86-11.45,1.63-3.24,3.42-6.5,4.33-10,.38-1.43-.9-4.08-2.24-5-2.91-2-4.54-4.22-4-7.85.69-5.05,1.36-10.12,1.86-15.2a31.34,31.34,0,0,0-.31-5.37c-.29-4.19-.71-8.38-.83-12.58-.16-5.45,0-10.9-.12-16.35a42.35,42.35,0,0,0-.57-5.94c-1.22-7.3-2.83-14.55-3.71-21.89a131.35,131.35,0,0,1-1-19.82c.13-3.95-.58-5.3-4.72-5.37-8.41-.16-16.93-2-25.2-1.07-6.58.7-13.25-3.57-19.69.78-1.45,1-4,.9-5.87.57-8.81-1.53-15.43,2.49-21.63,7.94-1.73,1.52-3.84,2.58-5.57,4.09-2.89,2.53-4.66,2.6-6-1.55-.34-1-3.21-2.13-4.46-1.74a8.17,8.17,0,0,0-4.52,3.83c-2.35,4.9-3.44,10.55-6.43,15-2.48,3.67-6.87,6.1-10.54,8.92-9.1,7-18.29,13.84-27.41,20.79-11.48,8.75-22.9,17.58-34.42,26.28-.86.65-2.31.51-3.49.74-.12-1.09-.62-2.32-.28-3.24,2.39-6.47,5.06-12.84,7.41-19.32,1.17-3.23,3-4.74,6.57-4.93,1.86-.1,3.64-1.69,5.45-2.6-.91-1.64-1.48-3.67-2.82-4.82-3-2.57-2.81-5.53-1.71-8.63,2.64-7.44,5-15,8.36-22.16,2.64-5.66,6.71-10.63,9.73-16.14,1.15-2.1,1.28-4.82,1.61-7.3s-.23-5.08.58-7.26c3.89-10.43,8.29-20.66,12.12-31.1,1.26-3.44,3.15-4.84,6.58-4.74,2.33.07,4.71-.24,7,.15s5.74,1.19,5.92,2.26c.43,2.64-.58,5.58-1.34,8.3-.32,1.16-1.48,2.07-2.27,3.11,3.7,2.48,7.32,1.28,8.93-3.86,1.25-4,3.16-7.16,6.88-8.36a35.31,35.31,0,0,1,11.23-1.4c1.64,0,3.73,1.49,4.79,2.91,2.6,3.5,6.37,4.18,9.3,2.37,10.68-6.58,22.35-5.39,33.92-5.39q22,0,44,.11c6.61,0,5.54-.23,7.81-7.45,2.72-8.65,1.07-17.17,1.77-25.7.29-3.44-.56-4.43-4.39-5.73-6.19-2.12-11.91-6.25-17.11-10.42-4.41-3.56-5.92-4.13-7.81,1.13-1.42,3.95-1.76,8.41-1.91,12.66-.21,6-2.34,8.67-8.06,10-10.91,2.52-21.73,5.4-32.63,8-5.61,1.34-11.28,2.5-17,3.51-3.46.62-5.53-1.71-3.65-4.73,3.94-6.3,4.27-15,12.14-18.78a3.67,3.67,0,0,0,1.52-2.87c-.44-11.54,7.66-18.5,14.52-25.64,6-6.27,13.42-11.29,20.47-16.52,3.39-2.51,4.63-5.37,4.07-9.4a41.52,41.52,0,0,1,0-5.58l2.7-1.7c1.38,2.2,2.44,4.73,4.21,6.56,4.61,4.75,9.46,9.27,14.37,13.71,1,.92,2.72,1.12,4.11,1.62a96.06,96.06,0,0,0,10.79,3.7c2,.47,4.34-.28,6.52-.48-.74-1.86-1-4.14-2.33-5.48-2.62-2.71-6-4.68-8.6-7.43a9.55,9.55,0,0,1-2.57-6.13c0-1.28,2.43-2.93,4.09-3.64,3.92-1.66,8.33-2.34,12-4.36,5.3-2.88,5.92-7.49,4.47-13.25a21.58,21.58,0,0,1,.58-11.54,20.47,20.47,0,0,0,.12-13,25.3,25.3,0,0,1-.21-12.87,24.28,24.28,0,0,0,0-13.52,24.92,24.92,0,0,1,.14-12.86c1.28-4.41,1.89-8.28-.11-12.46-2.21-4.6-1.89-9,.07-13.85A15.91,15.91,0,0,0,202.72,71c-2-5.48-3-10.45.27-15.66.48-.77.88-2.17.51-2.79-3-5-5.54-10.66-9.57-14.78-5.26-5.38-5.68-6.16-.42-11.38,5.66-5.62,10.64-11.69,11.42-20.27.38-4.07,2.81-6.74,7.53-5.94a17.26,17.26,0,0,0,2.48.27c2.75.1,6.62-1,8,.45,2.67,2.71,4.43,6.64,5.67,10.36,2.1,6.28,4.41,12,10.34,15.92,3.78,2.49,3.27,5.47-.11,8.55-7.08,6.43-11.65,14-9.51,24.07a6.82,6.82,0,0,1,.18,1.49c-.25,11.76-.54,23.53-.76,35.29-.06,3.65.1,7.29.12,10.94,0,4.64,0,9.28,0,13.92,0,4,0,7.95,0,11.92q0,6.7,0,13.41,0,6.47,0,12.94c0,4.46.3,9-.12,13.39a13.09,13.09,0,0,0,10.17,14.34c1.94.45,4,.61,5.78,1.47s3.81,2.23,4,3.63a9,9,0,0,1-1.77,6.23c-2.44,3.1-5.67,5.55-8.32,8.5-1,1.07-1.17,2.8-1.72,4.22,1.65.45,3.51,1.63,4.9,1.21a77.73,77.73,0,0,0,11.05-4.53c4.87-2.32,9.75-4.69,14.37-7.46,1.68-1,2.62-3.25,3.94-4.88,2.2-2.7,4.43-5.37,6.65-8l1.65.73c.13,1.5.61,3.07.32,4.48-1.24,6.07-.32,8.14,4.74,11.22,2,1.22,3.58,3.18,5.42,4.71,3,2.5,6.22,4.77,9.09,7.42,4.39,4,9.19,7.88,12.65,12.64,4.36,6,7.62,12.8,11.17,19.35.74,1.37,1.36,3.38.91,4.73-1.88,5.67,1.06,9.29,4.85,12.58a51.69,51.69,0,0,0,5.48,3.66c-3.77,4.45-6.59,2.46-9.27,1.84s-5.05-1.3-7.58-2c-5-1.3-9.86-2.72-14.85-3.85q-11.6-2.6-23.26-4.83c-5.17-1-7.62-4.26-8.07-9.67a85.1,85.1,0,0,0-2.76-14.64c-.83-3.12-3.95-2.65-7.18.22-3.67,3.27-7.77,6.06-11.72,9a4.13,4.13,0,0,1-2.24,1c-7.1-.26-7.46,4.16-7.06,9.55.55,7.45.8,14.92,1.1,22.39a8.24,8.24,0,0,1-.61,2.85c-.93,2.8.29,4.19,3,4.44,2.15.19,4.33.16,6.49.17,32.67.09,65.35-.4,98,.62,8.89.28,17.54-1.32,26.37-.78s18,.22,27,0c4.17-.12,7.67.26,9.31,4.78a4.32,4.32,0,0,0,1.18,1.59c7.19,6.68,6.78,5.94.71,15.2-8.48,12.93-16.85,25.92-25.43,38.78-2.88,4.31-5.4,9.18-12.32,8.06-4.48-.73-4.76,3.62-6,6.64a20,20,0,0,1-2.92,5c-2.82,3.48-6.31,6.5-8.64,10.26-1.9,3.07-3.82,6.89.42,10.31.71.57.6,3.28-.11,4.35q-9.24,13.88-18.88,27.47c-7.68,10.83-15.63,21.47-23.28,32.33-2.64,3.75-4.48,8.06-7.13,11.8-3.14,4.44-6.77,8.52-10.14,12.8a13,13,0,0,0-2.13,3.36c-5.42,14.74-16.12,26.23-24.24,39.31-7.77,12.53-16.28,24.6-24.2,37-1.3,2-1.69,5-1.7,7.5q-.16,48.49,0,97c0,4.92,0,9.18-6.41,10.52-3.59.74-2.56,4.23-1.32,6.64,4.44,8.66,7.92,17.55,7.71,27.5-.08,4,1.9,5.75,5.84,5.71,7-.07,14,.32,21-.11,10.58-.65,13.26-4.51,15.78-14.61,3.92-15.71,9.66-30.56,19.19-43.79a13,13,0,0,0,2.44-4.84c.31-1.64.25-4-.73-5s-3.22-.28-4.92-.35c-6-.27-12.06-.47-18.08-.89-1-.07-2.64-1-2.8-1.78-1.1-5.31-2.69-10.31-7.63-13.79L277.4,623l13.27,8.14c-2-4.62-3.42-7.95-4.85-11.29l1.75-1.16c2.54,2.41,5.24,4.67,7.57,7.26,4.41,4.91,9.21,8.4,16.37,7.85,3.54-.27,4.06-1.47,3.87-4.61a41.68,41.68,0,0,1,.75-10.21c.19-1,2.17-2.33,3.31-2.32.89,0,1.82,1.83,2.62,2.93s1.61,2.53,2.41,3.81c1.06-1,2.52-1.72,3.08-2.9,1.54-3.26,2.69-6.69,4.19-10.58,6.57,2.12,8.15-3.76,11.43-7.84,3.82-4.74,8.47-8.82,12.93-13,.79-.75,2.4-.63,4,.06-2.81,2.53-6,4.74-8.37,7.65-5.86,7.26-11.42,14.77-16.88,22.34-.88,1.22-.63,3.26-.9,4.92a40.69,40.69,0,0,0,5.63,0,38,38,0,0,0,5.26-1.35c.16.91.74,2.4.42,2.63a20.71,20.71,0,0,1-5.23,2.78c-1.76.59-3.71.63-6.63,1.06l5.76,7.73H323.79c-.16.52-.31,1-.46,1.55l5.21,5.49-1.44-.33c-1.18,2.33-2.81,4.54-3.46,7-1.34,5.08-3.17,6.79-8.38,6-4.58-.71-7.36,1.26-9.11,5.18-3.66,8.15-7.84,16.13-10.68,24.56-1.65,4.87-1.22,10.48-1.55,15.77-.24,3.86,4.84,6.87,10,7.25a247.76,247.76,0,0,0,27,0,11.78,11.78,0,0,0,6.64-3c10.15-8.84,20.09-17.91,30.09-26.91a46.47,46.47,0,0,1,3.69-3.35c2.55-1.83,4.34-1.91,5.31,1.88,1.77,6.92,4.61,7.56,9.93,2.84,1.57-1.39,3.87-2,5.35-3.47a11.59,11.59,0,0,0,3-5.18c.18-.7-2-2.92-2.7-2.74-1.62.45-3,1.88-4.41,2.92-.87.62-2.13,2-2.54,1.72a5.36,5.36,0,0,1-2.21-2.79c-1.17-3.34.55-5.59,3-7.72C396.18,655,406,646,416.28,637.52a11.57,11.57,0,0,0,4.55-9.88c-.05-14-.16-28,.12-42,.09-4.18,1.52-8.32,2.1-12.51.43-3.11.31-6.3.73-9.41a22.86,22.86,0,0,1,1.74-7.06,15,15,0,0,0-2-16.56,11.64,11.64,0,0,1-2.6-6.66c-.16-32.67-.09-65.33-.14-98,0-4.24,1.89-7,5.75-8.35,4-1.45,3.61-4.1.83-5.71-6-3.5-7.24-8.65-6.56-14.86a10.42,10.42,0,0,0-4-9.66c-4.93-4.22-9.51-8.85-14.45-13.05-2.53-2.14-2.4-3.75-1.15-6.78,4-9.8,11.75-11.81,21.17-11.61,9.82.21,19.66,0,29.49-.16,6.19-.07,7.46,2,4.66,7.56a17.17,17.17,0,0,0-.91,3.64c1.38.15,2.89.75,4.11.37,5.42-1.67,11.8-2.15,12.93-9.79.12-.79,2.71-1.73,4.15-1.73,22.83-.08,45.66,0,68.48,0a7.65,7.65,0,0,1,7.56,4.54c2.43,4.6,4.77,5,7.42.52,2.83-4.8,6.48-5,11.26-5,23.33.19,46.66,0,70,.11a15.82,15.82,0,0,1,7.83,2.34c3.08,1.89,5.52,1.81,8.82.45A33.39,33.39,0,0,1,670,365.62c17.5-.32,35-.31,52.49-.16,2.3,0,6.16,1.1,6.55,2.47,1,3.44,1.54,7.43-3,10-3.71,2.13-6.84,5.27-10.35,7.78-.91.65-2.63,1.16-3.39.73a3.5,3.5,0,0,1-.86-3.29c1.38-3.28-.57-3.63-3-4.16-4.5-1-7.66,1.24-9.65,4.62-1.73,2.93-1.8,6.2,1.49,8.9,2.59,2.13,1.55,4.82-.9,6.21-4,2.28-4.19,5.87-4.72,9.76-1.5,10.84,1,21.55.59,32.38-.59,14.64-.14,29.33-.13,44,0,6.88-.94,7.56-8.79,6.29.79,1,1.4,2.45,2.42,2.83,4.52,1.67,6.41,4.77,6.4,9.52q-.08,56.24,0,112.49a136.49,136.49,0,0,1-.59,13.72c-.14,1.46-1.89,2.68-2.39,4.19-.88,2.64-2.69,7-1.74,7.81a13,13,0,0,0,8.81,2.49c5.36-.51,10.59-2.34,15.93-3.29,5-.91,6.44-5,8-8.75,3.63-8.89,6.92-17.91,10.39-26.87q10.41-26.89,20.92-53.76a23.64,23.64,0,0,1,3-5.12q4.34-6,8.94-11.73a18.19,18.19,0,0,1,3.27-2.59c.59,1.26,1.69,2.51,1.69,3.77,0,5.53,1.43,11.42-3.3,16a3.48,3.48,0,0,0-.78,2.31c.12,5.21,0,10.46.67,15.61.41,3.13.63,5.68-1.4,8.42-.61.81.28,4,1.27,4.49,3.18,1.56,3.64,4,3.64,7,0,13.5.08,27-.09,40.5,0,2.37-1.15,4.73-1.76,7.09a8.36,8.36,0,0,0-.63,2.81c.83,6.86,1.76,13.71,2.7,20.56a2,2,0,0,0,.34.86l22.79-2.77A.93.93,0,0,0,795,658c-2.79-6-1.81-10.49,3.89-14.58,2.05-1.47,3.12-5.55,3.14-8.45.21-27.16.07-54.33.08-81.49q0-46.08.07-92.16a73.38,73.38,0,0,0-.22-8c-.33-3,.17-4.92,3.39-6.2,3.7-1.48,3.94-5.74.26-7.65s-3.74-4.37-3.58-7.77c.29-6,.3-12,0-18-.19-3.89.43-6.52,5-7,1.24-.13,2.35-1.46,3.51-2.23a17.78,17.78,0,0,0-3-2.82C801,398,794.24,394.93,788,391c-5.64-3.61-10.62-8.24-16.06-12.19-4-2.92-1.13-6.06-.4-8.9.9-3.51,3.9-4.64,7.42-4.61q22.25.18,44.49.24c4.16,0,8.33-.36,12.48-.2,1.82.08,4.69.61,5.16,1.73.76,1.85.28,4.43-.28,6.54-.47,1.8-1.79,3.36-2.73,5ZM582.7,386.19c1.88,3.4,4.8,6.25,4.84,9.14.36,27.66.31,55.33.05,83,0,2.06-2.2,5.24-4,5.8s-5.22-1-6.43-2.71c-2.57-3.61-4.28-7.85-6.13-11.94-3.38-7.49-8.24-14.32-8.89-23-.27-3.57-2-7.94-4.63-10.23-6.33-5.58-9.25-12.77-12.3-20.16-1.35-3.27-1.4-5.87.67-8.84.67-1,.27-4.09-.37-4.34-4.38-1.7-8.91-3.9-13.46-4.07-12.14-.44-24.31.12-36.47.16-7.58,0-8.78,1.25-8.13,8.74.44,5,.9,9.74-2.49,14.34-1.19,1.62.07,5.22.56,7.85s2.06,5.36,2.06,8c0,19-.33,38-.35,57,0,1.64,1.47,4.67,2.35,4.71,7.77.33,15.57.22,23.35,0,1,0,2.14-1.52,3-2.55,7.61-9.67,15.11-19.43,22.79-29,1.21-1.52,3.46-3.69,4.69-3.38,1.89.47,3.69,2.59,4.8,4.45.86,1.44.77,3.54.78,5.35.06,8.33.73,16.75-.23,25a91.88,91.88,0,0,0-.24,20c1.52,15.68.61,31.61.35,47.43,0,2.66-1.76,5.28-2.71,7.92-2.71-1.21-6.11-1.77-8-3.76a88.82,88.82,0,0,1-9.79-13.2c-6.85-10.86-14.12-21.29-24.37-29.35-4.32-3.41-6.66-3.25-9.6,1.37a13.44,13.44,0,0,1-3.86,4.44c-2.89,1.78-3.65,4-3.09,7.16,1,5.5.42,10.57-3.95,14.74-2.41,2.31-1.91,4.62-.13,7.55,2.07,3.39,4.16,7.47,4.22,11.28.28,19.66-.05,39.33-.23,59-.05,5.37,1.31,7.06,6.64,6.88,11.4-.39,22.65,2.07,34.28.29C536,640,540.66,636.71,544,630.45c2.67-5.07,5.67-10.13,4.48-16.36a6.08,6.08,0,0,1,.88-3.3c6.46-14.17,12.58-28.51,19.65-42.38,3.13-6.14,4.09-13.85,11.18-17.82,1.17-.65.83-4.09,1.07-6.25.18-1.68.17-3.38.24-5.07,1.89.49,2.75,1,2.89,1.68,1.22,5.8,3,11.6,3.28,17.46.49,12.65-.16,25.34.27,38,.24,7-2.74,12.54-6.24,18-1,1.58-3.93,2.33-4.27,3.85-1,4.46-3.43,5.11-7.13,3.63-.72,4.6,2.23,7.29,6.2,5.84,1.84-.68,3.43-2,5.2-2.93,1.53-.79,3.15-1.4,4.72-2.1.48,1.83,1.35,3.64,1.36,5.47.07,11.66-.12,23.33,0,35,0,1.61,1.15,3.21,1.77,4.81a36.5,36.5,0,0,0,4.42-2.22c6.29-4.24,12.26-9,18.86-12.72,5.27-2.93,12-11.55,12-17.64,0-26.5,0-53-.08-79.5,0-5.24-.22-10.16,4.27-14.18,1.88-1.68,3.18-5.24-.57-6.47s-3.71-3.55-3.7-6.51q.09-60.5,0-121a15.87,15.87,0,0,0-2-7.49c-2.18-3.82-2.65-6.84.83-10.24,3.1-3,2.72-4.86-.57-8.05-1,1.49-2,3-3.13,4.45-4.49,5.75-7.8,6-13.23,1.26-4.51-3.93-9.11-7.76-13.72-11.58-2.69-2.23-4.82-1.52-5,2C587.78,382.07,587,385.29,582.7,386.19ZM867.58,619.62h-.12c0,5.67,0,11.33,0,17,0,3.24,1.76,5,4.77,3.33a71.39,71.39,0,0,0,11.9-8.15c14.88-13,23-30.33,29-48.5,3.13-9.45,3.75-19.75,5.28-29.71.44-2.88,1-5.13,4.32-5.79,2.25-.44,2.83-1.48,1.48-3.92-1.61-2.88-3.12-6.19-3.34-9.4-1-15.25-1.17-30.57-2.55-45.78-.93-10.16-2.08-20.67-5.52-30.15-4.25-11.71-10.48-22.81-16.78-33.64-5.43-9.33-13.81-16.14-23.19-21.51-3.17-1.81-5.21-.6-5.29,3.09-.11,5.16.2,10.34-.11,15.49a12.55,12.55,0,0,1-2.18,6.85c-3.1,3.85-3.23,7.68-2.06,12.18a59.83,59.83,0,0,1,1.3,10.3c.28,3.48.11,7,.49,10.46.51,4.67,1.89,9.29,2,14,.37,22.32.6,44.65.53,67,0,15.29,2.15,30.89-5.32,45.39-.55,1.06.36,3.21,1.12,4.56,2.88,5.14,4.92,10.39,4.32,16.49C867.3,612.59,867.58,616.12,867.58,619.62Zm-716,24.89c-3.21-5.59-1.63-9.53,2.11-13.87C163.42,619.33,172.82,607.7,182,596a18.64,18.64,0,0,0,3.44-9c.71-5.89.45-11.89.88-17.83.21-2.84-.28-4.49-3.49-4.62a23.63,23.63,0,0,1-4.36-1c-2.91-.68-5.06-.24-6.4,3-.68,1.64-2.54,2.83-3.94,4.13-3.71,3.45-8.42,6.25-11,10.39-6.92,11.09-12.89,22.77-19.33,34.17-2,3.59-4.41,7-6.55,10.52-1.86,3.08-3.76,6.15-5.39,9.35-4.05,8-7.76,16.08-12,23.93-4.71,8.76-9.76,17.33-14.8,25.9S88.7,702.11,83.6,710.78c-1.54,2.61-2.68,5.45-4,8.19l1.63,1c1.92-1.7,4.15-3.16,5.72-5.14,10.45-13.27,20.67-26.72,31.14-40,7.52-9.52,15.42-18.74,22.91-28.29C144,642.79,146.81,640.69,151.56,644.51Zm198.1-317.36-1.39-1.2c-1.86,1.53-4,2.79-5.52,4.63-4.94,6.12-9.55,12.5-14.43,18.67s-9.95,12.48-15.11,18.57c-3.5,4.14-7.54,7.86-10.92,12.09-3.51,4.4-6.33,9.35-9.78,13.8-6.22,8-12.67,15.82-19.06,23.69q-7.84,9.68-15.81,19.27c-3.67,4.42-7.51,8.7-11.1,13.18a6.94,6.94,0,0,0-1.44,4.1c.07,7.14.37,14.28.62,21.42.15,4.09,2.21,5.15,5.92,3.12,2-1.11,4-2.32,6.09-3.27,7.44-3.41,14.54-6.68,17.33-15.74,1.38-4.47,3.46-10.05,10.22-10.21.55,0,1.84-3.1,1.39-4.18-1.49-3.56-.86-6.4,1.47-9.25a23.22,23.22,0,0,0,3.21-5,85.81,85.81,0,0,1,19.45-27.46c1.11-1.05,2.1-3.67,1.55-4.74-1.89-3.69-.27-6.4,1.51-9.27,1.58-2.53,3.22-5,4.72-7.61Q332.2,358.36,345.75,335C347.2,332.44,348.37,329.76,349.66,327.15ZM144.9,678.64c2.1,4.86,3,9,5.41,12,3.09,3.81,2.6,6.4-.59,9.37a9.63,9.63,0,0,0-2.52,3.06c-.64,1.61-1.35,3.6-.89,5.08.26.84,2.79,1.33,4.3,1.35,8.49.12,17,0,25.46,0s14.9-7.23,12.36-15.29c-1.83-5.83.48-9.59,2.58-14.27,1.59-3.55,4.9-7.41,1.28-11.93-4-5-7.6-10.22-3.45-17a5.76,5.76,0,0,0,.36-3.88c-.24-1.1-1.26-2-1.94-3-1,.72-2.33,1.22-2.93,2.18-5.53,8.85-10.82,17.84-16.4,26.66-3.82,6-9,9.71-16.63,7.54ZM259.3,334.9c-8.22-1.52-7.8-1.53-7.51,6.11.23,5.81.86,11.56-2.21,17.47-2.62,5-2.93,11.42-3.67,17.28-.7,5.58-.72,11.26-.87,16.89a36.71,36.71,0,0,0,.65,5.48c1.71-.93,4-1.44,5-2.86,4.34-6.08,8.12-12.55,12.43-18.65,4.21-5.94,9.09-11.42,13.18-17.44,4.52-6.65,8.53-13.64,12.64-20.56.68-1.15,1.42-3.05.92-3.93s-2.59-1.55-3.8-1.32a10.44,10.44,0,0,1-9.22-2.38c-1.33-1.06-4.3-.73-6.29-.18C266.72,331.86,263,333.51,259.3,334.9Z"/><path class="cls-1" d="M1100.53,677l4.63-7-15.23-9.73c-.58,3.11-.67,4.92-1.31,6.5-.42,1-1.77,2.46-2.51,2.36-1.16-.16-3.14-1.58-3.06-2.27.27-2.28.67-5.13,2.17-6.58,4.16-4,9-7.3,13.37-11.12,3.47-3,5.68-15.84,3.3-19.66-5-8-8.57-16.29-8.24-26.15.12-3.52-2.5-7.1-3.64-10.73a43.85,43.85,0,0,1-1.87-8.2c-.5-4.33-2.57-6.79-7-6.82-12.83-.11-25.67-.32-38.49-.07-1.82,0-4.43,2-5.21,3.72-1.62,3.55-2.08,7.6-3.31,11.35-2,6.17-1.08,13.78-8.36,17.5a3.27,3.27,0,0,0-1.4,2.46c0,10.22-2.23,20.14-3.6,30.18a8.21,8.21,0,0,0,2.39,6c3.32,3.24,7.27,5.82,10.82,8.84,2.51,2.13,5.76,4.15,6.92,6.95,1.34,3.22,1.32,7.36.63,10.85-.18,1-4.82,1.46-7.42,1.49-12.17.15-24.33.12-36.5,0-6.52,0-13.07-.72-18.5-4.66-2-1.42-2.91-4.26-4.29-6.48-.88-1.42-1.7-2.88-2.54-4.32-1.43,1-3.48,1.63-4.08,3-.54,1.18.26,3.22,1,4.64.54,1.11,2.24,1.7,2.68,2.81a6,6,0,0,1,0,4.24c-.34.75-2.14,1.17-3.29,1.18-6.49.05-13,.31-19.45-.3-2.78-.27-6.52-1.77-7.8-3.91-1.9-3.19-.07-6.58,3.17-9,8.56-6.3,17.32-12.42,25.33-19.36a28.88,28.88,0,0,0,7.63-11.92c2.68-7.6,4.16-15.61,6.28-23.42,1.69-6.19,3.56-12.33,5.37-18.5,2.64-9,5.32-18,7.91-27.09,1.05-3.64,1.41-7.57,3-10.94,1.83-4,4.54-7.5,7-11.1,2.24-3.21,3.57-6.27,1.23-10.11-.86-1.43-1.5-3.63-1-5.12,4.63-15.59,9.62-31.07,14.26-46.65,2.41-8.08,4.32-16.3,6.49-24.45,1.06-4,2.31-7.93,3.27-11.94,1.16-4.89,3.64-6,7.72-3.27.69.46,1.36,1.29,2.07,1.32a44.92,44.92,0,0,0,5.42-.33c-.76-1.85-1-4.44-2.37-5.44-8-5.81-8.25-6.45-5.36-15.92,1.5-4.88,3.27-9.83,3.65-14.84a12.2,12.2,0,0,0-3.58-8.54c-5.16-4.89-11-9-16.67-13.42-3.67-2.84-6.16-11.72-3.74-15.58.79-1.28,3.27-2.13,5-2.14,24.66-.13,49.32,0,74-.13,4.05,0,5.85,1.81,6,5.62.11,2.66-.42,5.49.34,7.94s2.69,4.46,4.21,6.6c.74,1,2.19,1.77,2.47,2.86,3,11.53,5.74,23.14,8.88,34.64,2,7.34,4.75,14.48,6.91,21.78,1.59,5.37,2.74,10.88,4.15,16.31,1.53,5.91,3.25,11.78,4.68,17.71s2.47,12.26,4,18.3c2.08,8,4.78,15.88,6.68,23.93a92.51,92.51,0,0,1,2.27,16.58c.17,3.18-1,6.26-5.51,6.14-.89,0-1.84,2-2.76,3,1.36.62,2.82,1.93,4.08,1.77,9-1.15,9.34-1.34,11.6,7.09,1.91,7.14,2.91,14.53,4.19,21.83a6.49,6.49,0,0,1-.51,3.38c-.8,1.93-3.07,4.24-2.56,5.52,1.25,3.13,3.22,6.44,5.84,8.43,3.9,3,4.65,6.45,5.47,11,1.5,8.26,4.76,16.19,6.69,24.41,1.73,7.38,2.69,14.94,3.89,22.44a3.6,3.6,0,0,1-.75,2.32c-2.67,3.87-1.14,6.22,2.41,8.5s5.88,2.69,7.16-2.2c.87-3.34,3-3.82,6.13-2.26,4.25,2.1,8.84,3.51,13.1,5.58,2.25,1.09,5.49,2.43,3.81,5.88s-3.15,7-8.12,6.9c-21.17-.21-42.33-.24-63.49-.3-9.34,0-18.67.05-28,.08ZM1064,483.89c-1.55,4.26-2.86,7.23-3.72,10.32-3.76,13.54-7.37,27.12-11.1,40.66-.85,3.1,0,5,3.32,5.19s6.32.15,9.49.14,5.25,1,7,4.25c1.16,2.13,4.88,3.07,7.64,4,1.23.42,2.89-.65,4.37-.71,6.5-.31,7.31-1.56,3.69-7-1-1.49-3.3-2.1-5-3.1-1.19-.69-3.23-1.16-3.46-2.07-1.89-7.7-3.52-15.47-5.08-23.24-1.59-7.94-3-15.92-4.56-23.85C1066.37,487.32,1065.4,486.3,1064,483.89Z"/><path class="cls-1" d="M955,701.8a15,15,0,0,1,2.86-.53c9.25,0,18.5,0,27.75,0,3.51,0,5.14,2.23,2.84,4.61-4.46,4.63-2.41,9.08-.87,13.83a26.15,26.15,0,0,1,1.65,7.61,28.65,28.65,0,0,0,5.41,16.78c1.71,2.45,2.19,5.73,3.34,8.6a36.63,36.63,0,0,0,1.89,3.62c1-1.15,2.48-2.14,2.93-3.47,1.17-3.44,1.73-7.07,2.8-10.55,2.5-8.07,5.17-16.09,7.75-24.14,1.35-4.22,2.31-8.36-1.3-12.16-.74-.77-1.19-2.76-.71-3.49s2.28-1.06,3.5-1.06c3.45,0,7-.17,10.31.57,1.42.32,3.14,2.59,3.41,4.19,1,5.79,1,11.73,2.09,17.5.54,3,2.68,5.63,3.67,8.57,2,6,3.66,12,5.68,18,.65,1.9,2,3.56,3.71,6.44,1.1-2.53,1.71-3.79,2.2-5.09,3.65-9.74,7.85-19.32,10.67-29.29,1.39-4.88,3.83-10.69-.87-15.77-.9-1-.7-3-1-4.47a24.81,24.81,0,0,1,4.23-.67c4.09,0,8.18.17,12.26.46a31.84,31.84,0,0,1,5,1.16,47.54,47.54,0,0,1-1.51,4.88c-3,7.12-6.12,14.19-9.11,21.31-1.08,2.57-1.83,5.27-2.86,7.87-2.44,6.14-5,12.25-7.41,18.38a9.49,9.49,0,0,0-1,3.31c0,8.93-4.24,16.55-7.09,24.64-2.07,5.85-3,12.11-4.54,18.15a32.72,32.72,0,0,1-2,4.7c-1.33-1.21-3.31-2.18-3.87-3.68-2-5.38-3.44-11-5.18-16.44q-5.13-16.29-10.38-32.54a13.62,13.62,0,0,0-1.73-3.58c-.53-.74-1.68-1.79-2.2-1.63a4.06,4.06,0,0,0-2.29,2.22c-2,5.78-3.68,11.65-5.63,17.44-.52,1.53-1.67,2.83-2.36,4.32s-1.86,3.21-1.53,4.5c1.25,4.86-1.12,8.62-3.62,12A18.2,18.2,0,0,0,998,802.33a21.79,21.79,0,0,1-.49,4.64l-1.55.44a32.81,32.81,0,0,1-2.75-5.11c-4.27-12.89-8.5-25.8-12.58-38.75-2.92-9.24-7.46-18.48-7.87-27.87s-6.19-15.56-9.55-23.13c-.53-1.2-2.23-1.85-3.26-2.88-2.09-2.09-4.09-4.27-6.13-6.42Z"/><path class="cls-1" d="M430.35,701.64a29.92,29.92,0,0,1,4.56-.69c13.64,0,27.33-.63,40.92.27,10.23.69,19.75,4.57,25.6,13.92,5.61,9,2.68,25.74-5.27,31.47-1.44,1-3.29,1.51-4.88,2.36-1.44.78-2.79,1.73-4.95,3.09,2,1.09,2.93,1.71,3.93,2.13,4.37,1.84,9.34,2.85,10.69,8.53a2.86,2.86,0,0,0,1.52,1.88c6.66,1.84,6.31,7.44,6.68,12.51,1.3,17.94-6.9,26.61-24.79,28.6-16.17,1.79-32.51,2.06-48.78,2.89-1.08.06-3-.73-3.15-1.38-.21-1.22.23-3.38,1.08-3.83,5.93-3.08,6.45-8.15,6.21-14-.37-9.32-1.55-18.88,0-27.92,1.69-9.71.79-19.22,1-28.8A127.06,127.06,0,0,0,439.67,713c-.3-2.22-2.59-4.34-4.35-6.14-1.5-1.54-3.54-2.57-5.34-3.83C430.1,702.55,430.23,702.1,430.35,701.64Zm57.92,76.92c.05-9.28-8.48-19.55-17.47-21-7.52-1.25-9.58.6-9.87,8.1s-.92,14.81-1.51,22.21c-.32,4,2.73,9.52,6,9.7C474.75,798,488.53,791.92,488.27,778.56ZM460.7,729.13h0v13c0,3.45,1.6,6.8,5,6,4.76-1.11,10.06-2.94,13.42-6.22,5-4.9,5.66-12,3.62-18.73-2.19-7.2-7.5-10.84-15.11-11.71-4.41-.51-6.8.69-6.92,5.18C460.61,720.8,460.7,725,460.7,729.13Z"/><path class="cls-1" d="M370,561.2c-4-2.94-7.32-5.71-11-8-1.26-.78-3.3-.31-5-.42a29.91,29.91,0,0,0,1,4.45c1.23,3.18,3.12,6.2,3.75,9.48.27,1.34-1.8,4.34-3.17,4.59-5.06.91-10.3,1.25-14.81-2.27-.91-.7-1.94-1.62-3-1.71-1.56-.13-3.61-.11-4.6.79-.63.57-.23,3.25.58,4.28,6.38,8.11,5.77,17.45,4.82,26.77-.19,1.86-2,3.56-3,5.33l-1.75-.54a69.37,69.37,0,0,1-.54-7.18c.18-9.11.59-18.23-2.53-27a11.89,11.89,0,0,0-1.82-2.58c-.87.64-2.47,1.25-2.5,1.92-.18,4.48,0,9,0,13.47,0,1.91-.18,3.83-.28,5.74-1.47-1.26-3.55-2.23-4.28-3.83a39,39,0,0,1-2.76-9.46c-.71-4.08-2.59-4.39-5.94-2.8a56.87,56.87,0,0,1-10.63,4.12c-1.46.37-4.26-.71-4.85-1.91s.51-3.62,1.51-5.06c2.22-3.21,4.84-6.14,7.93-10-6.81-1.32-8.45,2.78-10.94,6-3.12-3.24-1.74-5.56.81-8,4.45-4.25,4-5-1.5-7.88a149.81,149.81,0,0,1-15.38-9.82,4.12,4.12,0,0,1-1.2-3.44c.1-.64,1.83-1.45,2.84-1.48,8.3-.22,16.64-.79,24.89-.16,4.42.34,8.67,2.82,13.46,4.49.15-1.28.7-2.53.33-3.35-5.66-12.48.89-23.17,5-34.14.78-2,3-3,4.61-.43,2.48,4.11,5.39,8.17,6.79,12.66,1.16,3.74.34,8.07.51,12.14.07,1.68.41,3.35.64,5,1.45-.45,3.16-.56,4.33-1.41,8.7-6.36,18.95-8.37,29.13-10.56a3.94,3.94,0,0,1,3.4,1.17c.52.75.2,2.51-.34,3.5-4.3,7.78-10.05,14-18.78,16.94a20.58,20.58,0,0,0-2.67,1.59c2.16,1.63,3.8,3,5.58,4.18,3.3,2.19,6.92,4,10,6.45A6,6,0,0,1,370,561.2Z"/><path class="cls-1" d="M810.25,773.76h-31c1.75-2.14,2.41-3.63,3.54-4.21,5-2.54,5.06-6.73,5.54-11.68,1.29-13.3-.74-26.5-.09-39.72.24-4.88-.69-8.75-4.64-11.81-1.1-.84-1.77-2.23-3.43-4.41h30.58c-.58,1.3-.68,2.12-1.13,2.42-8.73,5.83-6.32,14.85-6.56,23-.12,4,2,6.17,6.19,6.14,3,0,6,0,9,0,4.29.1,6-2.12,5.9-6.2-.09-4.49.52-9.09-.25-13.44-.49-2.75-3-5.1-4.52-7.7a31.4,31.4,0,0,1-1.64-3.87c1.19-.4,2.38-1.13,3.58-1.15,7.39-.12,14.79-.08,22.18-.07a9.23,9.23,0,0,1,2.45.34c.43.12.77.57,1.67,1.27-1,1.28-1.72,2.88-3,3.68-4,2.54-5.12,6-5.06,10.6.17,14.15,0,28.29-.07,42.44,0,4.06.79,7.48,4.75,9.71,1.12.64,1.46,2.64,2.17,4-1.37.41-2.72,1.16-4.09,1.18q-9.23.18-18.46,0c-1.37,0-3.34-.53-3.88-1.47a4.24,4.24,0,0,1,.83-4c3.26-3,3.32-6.6,3.12-10.55s-.1-8,.08-12c.16-3.57-1.6-5.12-4.93-5.58-13.77-1.91-15.67,0-16.42,13.56-.43,7.68,1.7,13.62,8.65,17.88Z"/><path class="cls-1" d="M517.71,701.74a14.1,14.1,0,0,1,3.76-.45c4.65.69,9.26,1.63,13.91,2.39a9.77,9.77,0,0,0,4,.1c9.7-2.47,19-.08,28.12,2.63a14.83,14.83,0,0,1,7.45,23.38c-3,3.93-6.32,7.75-11.77,8.67-3,.5-4,2.92-2.6,5.29A142.68,142.68,0,0,0,571,760.38c2.44,3.19,6.28,5.28,9.27,8.1,1.09,1,1.54,2.74,2.29,4.14-1.45.58-2.88,1.19-4.33,1.73-.29.11-.68-.08-1,0-11.46,2.49-17.76-3.84-22.72-12.93-2.7-4.94-5.88-9.64-9-14.3a5.5,5.5,0,0,0-3.51-2c-.5-.06-1.78,1.88-1.82,2.93a103.51,103.51,0,0,0,.25,15c.23,2,2.21,3.91,3.8,5.43,1.37,1.3,3.32,2,5,2.93l-1.67,3c-3.39-.35-6.77-.74-10.16-1a40.77,40.77,0,0,0-7-.37c-4.13.35-8.23,1.07-12.35,1.64-.27-.65-.55-1.31-.83-2a25.4,25.4,0,0,1,3.68-3.85,9.12,9.12,0,0,0,4.25-8.39c-.15-15.14-.18-30.28,0-45.41a8.68,8.68,0,0,0-4.16-7.91c-1.6-1.09-3.33-2-5-3Zm22.5,19.88c0,11.67,3.57,14.86,12.71,11.2a22.79,22.79,0,0,0,4.66-2.84,10.24,10.24,0,0,0,3.68-12.76c-2.26-5.27-11.12-9-17.6-7.2-5.47,1.52-3,6.15-3.45,9.61A14.68,14.68,0,0,0,540.21,721.62Z"/><path class="cls-1" d="M1181.87,774.46c.54-2.23.49-2.92.79-3.14,4.88-3.47,5.55-8.56,6.82-14,1-4.42-1-7.71-1-11.51,0-7.16.45-14.31.71-21.46.09-2.33.65-4.75.2-7a37.1,37.1,0,0,0-3.14-9.15c-1.72-3.43-1.1-6.49,2.2-6.33,12.91.63,26.17.24,37.4,8.29a15.43,15.43,0,0,1,6.66,10.61c.51,3.22,2.75,6.33,4.7,9.14,3.31,4.77,3.71,9.43.84,14.48a21.17,21.17,0,0,0-2.3,5.5c-1.23,5.23-4.22,8.73-8.31,12.37-4.91,4.39-9.63,8.33-16,10.18C1201.86,775.26,1192.19,773.63,1181.87,774.46Zm21.93-36.18h0c0,7.48-.08,15,0,22.46.07,4.8,2.1,5.85,6.38,3.55,8.55-4.6,15-20.85,12-30.26a9,9,0,0,1-.37-.93c-.41-1.93-.92-3.86-1.14-5.83-.76-7.08-2.9-13-10.37-15.94-4.9-1.9-6.43-1.33-6.52,4C1203.7,723,1203.8,730.62,1203.8,738.28Z"/><path class="cls-1" d="M719,773.66H687.46c4.6-4.76,6.87-9,4.36-14.22-1.28-2.67-2.3-7.2-4.08-7.55-4.58-.88-10-1-14.13.78-2.4,1.06-3.61,6.39-4,10-.33,3.22,1.2,6.63,2.13,11-6.3,1.44-13.4.39-21.76.55,1.42-2.33,1.8-3.83,2.73-4.35,5.75-3.22,6.72-9.15,8.57-14.58,2.35-6.89,4.53-13.85,7-20.72,1.9-5.41,4.62-10.6,5.92-16.14.84-3.6.33-7.78-.57-11.45-1-4.13-.24-5.69,4-5.27,2.62.26,5.35.9,7.86.43,5.22-1,7.74,1.42,9.33,6.69,2.22,7.37,4.06,14.86,6,22.31.3,1.12.88,2.35.68,3.4-1.63,8.75,5.09,14.88,6.82,22.46,1.38,6,3.47,10.89,9.21,13.72C718.08,771,718.22,772.06,719,773.66Zm-32-33.94c-1.29-3.84-2.2-7-3.47-10-.41-1-2.14-2.37-2.62-2.15a5.15,5.15,0,0,0-2.63,2.93,35.71,35.71,0,0,0-1,7.78c0,2,0,4.31,1,5.74.66.94,3.65,1.25,4.81.55C684.73,743.51,685.76,741.32,687,739.72Z"/><path class="cls-1" d="M592.67,701.15c3.4.39,7,.23,10.18,1.29,8,2.66,15.88,1.59,23.87.42a89.08,89.08,0,0,1,11.74-1.07c1.06,0,3,1.57,3.07,2.47.25,7.19.14,14.39.14,21.59l-1.31.52c-2.22-3.68-4.42-7.38-6.67-11-3.16-5.15-10.55-7.64-15.93-5a6,6,0,0,0-2.83,4.23,74.57,74.57,0,0,0,.31,14.41c.68,5,4.23,6,8.45,3.22,1.51-1,3.45-1.33,5.2-2,.55,1.77,1.43,3.52,1.58,5.33a40.64,40.64,0,0,1-.18,8.47c-.15,1.2-1.38,2.26-2.12,3.38-1.09-.81-2.8-1.41-3.14-2.46-1-3.11-2.88-4.39-6-4-3.52.47-3.87,3.16-3.88,6,0,4.79-.13,9.6.07,14.39.12,2.9,1.85,4.23,4.92,4.44,10.69.73,16.74-4.12,18.09-14.66a24.92,24.92,0,0,1,1.71-4.91l1.45,0a26,26,0,0,1,.72,4.23c.07,6.16-.12,12.32,0,18.48.1,4.17-1.77,5.67-5.77,5.39-8.27-.59-16.54-1.22-24.81-1.46-3.45-.1-6.91.88-10.38,1.11-3.12.2-6.27,0-9.41,0l-.48-1.67c.91-1,1.65-2.64,2.76-3,4.63-1.3,5-4.8,5-8.62.07-6.33,0-12.66.28-19,.13-2.76,1.73-5.55,1.51-8.23A189.31,189.31,0,0,0,597.81,710c-.57-2.68-3.74-4.8-5.72-7.17C592.28,702.28,592.48,701.72,592.67,701.15Z"/><path class="cls-1" d="M773.72,729.06c-4-6.46-7.19-11.21-10.05-16.13-1.87-3.24-4.83-4-7.61-2.71-1.68.81-3.29,3.68-3.34,5.67-.33,12.27-.18,24.56-.24,36.84a25.6,25.6,0,0,1-.41,4.46c-.87,4.9.33,8.8,4.74,11.63,1.24.79,1.89,2.49,2.81,3.77-1.57.62-3.14,1.72-4.73,1.76-7,.2-14,.16-20.94,0-1.32,0-2.61-.94-3.92-1.44.67-1.23,1-2.95,2.07-3.58,3.63-2.23,4.32-5.49,4.51-9.37.47-9.74,1.66-19.46,1.68-29.2,0-6.21-1.33-12.46-2.62-18.58-.23-1.09-3.48-2.63-4.72-2.2a12.91,12.91,0,0,0-6.32,4.58c-2.77,4.25-4.79,9-7.11,13.53l-1.55,0a45.4,45.4,0,0,1-.79-6.22c0-4.3.29-8.6.5-12.9s3.21-6.32,7.38-5.6a38.78,38.78,0,0,0,8.35.28c10.89-.52,21.77-1.27,32.67-1.71,5.25-.21,9.47,5,9.21,10.27-.16,3.1.66,6.24.82,9.37C774.21,723.65,773.91,725.75,773.72,729.06Z"/><path class="cls-1" d="M1176.08,740.73c-1.18,8.38,2,17-2.06,25.25a5.63,5.63,0,0,0,0,3.8c1.15,3.45-.27,4.65-3.51,4.65-12.81,0-25.62,0-38.43,0a28.81,28.81,0,0,1-4.69-.87c.61-1.35.76-2.62,1.4-2.95,7.3-3.77,7.11-10.48,7-17.24-.15-12.11-.43-24.24-.18-36.35.1-4.51-1.09-7.59-4.88-10-1.3-.84-1.89-2.77-2.8-4.2,1.61-.48,3.22-1.33,4.84-1.38,6.56-.19,13.13-.17,19.7-.13a57.8,57.8,0,0,1,5.77.67c-.94,1.52-1.25,2.65-2,3.06-6,3.38-5.74,10.07-8.25,15.28a2.75,2.75,0,0,0,0,2c4.54,11.78,1.2,24.07,2.4,36.06.3,3-1.38,7,4.07,7.46,6.55.51,8.28-.64,10.27-5.93,2.26-6,5.1-11.81,7.81-17.64.36-.78,1.38-1.26,2.1-1.87Z"/><path class="cls-1" d="M1118.8,702.27c-1,1.54-1.43,2.8-2.3,3.34-5.42,3.37-6.09,8.43-6,14.25.28,13.45.15,26.9.09,40.34,0,3.72.72,6.83,4.14,9a4.38,4.38,0,0,1,1.4,3.43c0,.6-1.71,1.59-2.66,1.61-7.47.15-15,.16-22.42.08-1,0-2-.77-3.72-1.46,1.15-1.52,1.76-3.12,2.88-3.66,4.43-2.16,4.63-5.8,4.57-10.07-.18-12.42-.21-24.85.12-37.27.17-6.46.76-12.71-6-16.57-.7-.4-1-1.62-1.72-3Z"/><path class="cls-1" d="M513.34,286.35c.76-.11,2.7-.49,4.66-.64,1.65-.12,3.33,0,5,0l6.88.12a35.9,35.9,0,0,0-1.52,6c-.27,3.31-.11,6.65-.13,10a1,1,0,0,0,.11.48c3.15,5.21,8.14,2,12.26,2.52,2.64.33,5.21-.95,4.87-4.25-.41-4-1.44-7.86-2-11.82-.13-1,.65-3.1,1-3.1,5.42.09,10.84.41,16.25.76.29,0,.52.76,1,1.56-5.46,2.93-4.8,7.91-4.48,12.95s-.06,10,.29,14.95a54,54,0,0,0,1.87,10c.76,2.88-.06,4.11-3,4.09-3.32,0-6.65-.18-10,.05s-3.68-1.5-2.83-4c.42-1.24,1.69-2.38,1.66-3.54-.1-4,.78-10.37-1.28-11.62-3.45-2.1-8.88-1.18-13.46-1-.88,0-2.35,2.32-2.41,3.62a63.18,63.18,0,0,0,.46,11.42c.49,3.56-.67,5-4.21,4.86-3-.1-6,.4-8.95,0-1.05-.15-2.83-2.93-2.57-3.31,5.24-7.47,2.46-15.72,2.56-23.67a31.84,31.84,0,0,0,0-5C515,294.43,514.24,291.12,513.34,286.35Z"/><path class="cls-1" d="M931.09,285.72c4,0,7.95.12,11.92,0a24.13,24.13,0,0,1,24.93,20.94c.88,6.66-4.16,15.2-11.09,18.53-7.43,3.58-15.14,5.71-23.55,4.67a65.35,65.35,0,0,0-9,0c-2.69,0-4-.95-3.54-3.92.63-4.39,1-8.82,1.42-13.23.44-4.26,1.36-8.54,1.15-12.77-.17-3.43-1.7-6.79-2.66-10.16-.28-1-1.25-2.27-.92-2.89a3.68,3.68,0,0,1,2.84-1.31c2.81-.05,5.64.22,8.46.36Zm3.68,20.6h-.43c0,3.64-.14,7.28,0,10.92.35,7.87,5.6,10.42,12.33,6s9.14-11.23,8-19.05c-1.08-7.47-6.08-12-12.78-14.57-4-1.54-6.92.55-7.11,4.79C934.63,298.34,934.77,302.33,934.77,306.32Z"/><path class="cls-1" d="M1046.37,307.5c-.7,13.6-10.54,23.26-24.21,23.64a37.11,37.11,0,0,1-19.49-4.79c-10.19-5.66-11.48-27.21-1-35.88,12.83-10.6,33.63-8.14,42.07,6.2C1045.57,299.73,1045.55,303.86,1046.37,307.5Zm-11.43-1.66c-1.39-4-2.37-8.38-4.31-12.22-3.28-6.46-17.11-6.76-20.51-.46-5,9.26-4.8,18.78-.1,28.15,2.37,4.73,7,4.53,11.31,4.48,3.87,0,7.92-.69,9.4-5.08C1032.3,316.07,1033.42,311.28,1034.94,305.84Z"/><path class="cls-1" d="M892.15,286c4.27,0,8.54-.08,12.8.12.4,0,1.08,1.79,1,2.72-.45,10.37-1,20.72-1.52,31.09-.12,2.57,0,5.16,0,9.45-2.9-2-4.72-2.87-6.1-4.21-7.47-7.28-14.81-14.68-22.27-22-.71-.69-2.25-1.45-2.82-1.13-1,.55-2.24,2-2.17,2.94.47,7,1.08,14,2,20.91.38,2.82.06,4.26-3.08,3.94-1.65-.17-3.31-.3-5-.49-3.36-.39-4.47-1.62-2.36-4.92a11.13,11.13,0,0,0,1.32-5.57c.15-7,0-14,.07-21,0-6.5.08-6.5-3.94-10.19,3.18-3.2,11.43-2.84,14.61.52,2.25,2.38,4.64,4.63,7,6.91a93.57,93.57,0,0,0,7.52,7c1.41,1.1,3.47,1.36,5.24,2,.46-1.49,1.34-3,1.3-4.45-.11-4.26,1.75-9.24-4.08-11.79Z"/><path class="cls-1" d="M761.84,308c1.33,4.32,2.16,8.9,4.2,12.85a9.58,9.58,0,0,0,6.56,4.27,22.1,22.1,0,0,0,10.29-1.64c1.77-.72,1.1-11.28-.57-13.54-2.28-3.08-1-4.2,2.17-4.28s6.66-.12,10,.09c1.18.07,2.31.91,3.46,1.4A10.06,10.06,0,0,1,796.6,310c-3.8,4.17-1.47,9-1.15,13.35.42,5.64.17,6-5.4,5.93-5.78,0-11.56.81-17.34,1.26-4.5.34-15.69-3.34-19.18-9.8-5.8-10.75-5.33-26.24,8-32.94,7-3.55,14.84-6,23-2.65a13.36,13.36,0,0,0,3.89.82c7.26.64,7.34.62,7.61,7.68a4.14,4.14,0,0,1-1.49,3.26c-.66.38-2.47-.36-3.2-1.14-4-4.24-8.11-7.34-14.57-6.84-7.78.61-13.52,5.8-13.78,13.69-.05,1.66,0,3.33,0,5Z"/><path class="cls-1" d="M836.54,301.79a12,12,0,0,1,.76,2.2c.19,2.73.33,5.46.48,8.2-2.36-.79-4.69-1.64-7.07-2.37-4.1-1.25-7,.8-6.74,5.15.19,3.13.38,8.46,1.81,8.92,4,1.28,8.81,1.12,13.09.37,1.84-.32,3.32-3.39,4.7-5.4.89-1.29,1.3-2.9,2.27-5.18,4,4.75,1.78,9.42,1.55,13.65-.21,3.74-3.63,2.53-5.93,2.54-9.46,0-18.92,0-28.38-.06-2.6,0-3.24-1.08-3-3.76.69-8.54,1.3-17.11,1.29-25.66,0-4.11-1.65-8.19-2.17-12.33-.09-.7,1.71-2.34,2.66-2.36,9.95-.19,19.91-.28,29.86-.05,2,.05,5.15,1.2,5.58,2.54.91,2.84,1.84,6.42-1.6,9.4a40.72,40.72,0,0,1-2.9-3.48c-3.78-5.74-9.46-5.63-15.13-4.57-1.37.26-2.63,2.47-3.4,4-.54,1.08-.16,2.61-.19,3.94-.15,7.33,2.15,8.82,8.6,5.63A37.82,37.82,0,0,1,836.54,301.79Z"/><path class="cls-1" d="M612.46,300c-2.12-2.88-3.23-4.49-4.45-6a13.78,13.78,0,0,0-15.55-4.43,4.33,4.33,0,0,0-2.52,2.6,30.6,30.6,0,0,0-.53,8.42c.33,3.33,2.46,5.1,6,3.95,7.72-2.53,8.86-1.56,8,8.07-1.91-.72-3.65-1.27-5.28-2-5.42-2.56-8.27-.92-8.39,4.88-.19,9.92-.18,9.63,9.93,9.78,5.63.08,7.83-3.56,10.22-7.37a30.3,30.3,0,0,0,1.59-3.41l1.53.1c0,4.46.14,8.94-.14,13.39,0,.72-1.9,1.88-2.93,1.9-10.62.13-21.25.11-31.88,0-3.43,0-3.48-2.5-2.1-4.47,2.91-4.18,2.13-8.29,1.26-12.86s-.28-9.28-.72-13.89c-.32-3.34-1.5-6.6-1.81-9.93-.1-1,1.37-3.12,2.16-3.13,10.26-.2,20.53.07,30.78-.17,4.81-.11,6.27,2,5.8,6.34C613.12,294.1,612.86,296.43,612.46,300Z"/><path class="cls-1" d="M732,329.82c-8.46,0-16.92.09-25.36-.17-.81,0-2.27-2.38-2.16-3.53.34-3.67,1.74-7.26,1.92-10.92.33-6.81.21-13.64,0-20.46a11.48,11.48,0,0,0-1.6-5.46c-1.69-2.73-.79-3.75,2-3.76,10.28,0,20.57,0,30.84.2,1.71,0,4.59,1.2,4.85,2.33.72,3.1.41,6.47.25,9.71a5.22,5.22,0,0,1-3.3.35c-.92-.38-1.47-1.72-2.09-2.7-3.74-5.88-9.69-8.14-16.38-5.87a5.14,5.14,0,0,0-2.65,3,16.26,16.26,0,0,0-.26,4.95c0,7.82,2.43,9.12,9.32,5.34,1-.57,2.64-.09,4-.09,0,2.87,0,5.75-.2,8.6a6.59,6.59,0,0,1-3.82.06c-7.22-3.79-9.41-2.71-9.13,5.2.1,2.92-2,7,3,8.27,7.34,1.79,12.91.16,15.38-4.48a11.32,11.32,0,0,1,1.08-2.24c1.27-1.45,2.7-2.77,4.06-4.15a56.68,56.68,0,0,1,1.72,5.76c.22,1.1-.25,2.32-.18,3.47.29,4.86-1.86,7.15-6.8,6.83a32.27,32.27,0,0,0-4.48.28Z"/><path class="cls-1" d="M1053.26,286.9c.63-.3,1.58-1.16,2.55-1.18,9.29-.19,18.6-.58,27.87-.23,8.45.32,9.64,2.72,6.41,11.81-1.51-1.17-3.09-2-4.15-3.28-3.64-4.41-9.7-6.45-15-4.59-.94.33-2.24,1.4-2.3,2.2a51,51,0,0,0-.06,10.91c.42,3.06,4.38,3.73,7.88,1.54,1.78-1.11,4-3.53,5.21-.5,1,2.67.2,6.07.19,9.15-1.23,0-2.76.44-3.63-.12-3-1.91-6-4.83-9.24-1.44-3.45,3.61-2,8.32-.43,12.27,2.49,6.2,2.46,6.57-4.15,6.32-2.16-.08-4.32,0-6.49,0-3.78,0-4.42-1.76-3.48-5.17a36.37,36.37,0,0,0,1.25-9.05c.07-7.09,0-14.19-.41-21.27C1055.19,291.94,1054.07,289.68,1053.26,286.9Z"/><path class="cls-1" d="M455.12,297.16c0-2.9-.4-5.88.18-8.65.26-1.24,2.43-2.78,3.86-2.93a110.28,110.28,0,0,1,11.93-.22c4.64,0,9.29,0,13.93.1,5,.15,10,.08,14.81,1,1.29.24,2.34,3.7,2.74,5.83.23,1.22-1.06,2.72-1.67,4.1-1.55-1-3.12-2-4.65-3.11-1.93-1.35-3.68-3.54-5.79-4-4.72-.94-6.34.73-6.44,5.6-.18,8-.4,16-.29,24,0,2.17,1.21,4.32,1.81,6.49.33,1.21,1.13,2.83.65,3.58s-2.28,1-3.51,1c-3.15.09-6.31-.16-9.45-.08s-3.19-1.48-3-4.13q1.15-16.53,1.6-33.09c0-1.1-2.28-3.23-3.45-3.2a12.76,12.76,0,0,0-7,2.21c-1.92,1.45-2.95,4.05-4.38,6.15Z"/><path class="cls-1" d="M910.05,797H897.23c4.53-11.85,5.36-23.5,1.8-35.42-.33-1.12.55-3.73,1-3.78a36.76,36.76,0,0,1,8.7.35c.3,0,.39,2.8.22,4.26-.28,2.42-1.18,4.81-1.21,7.21,0,4,2.8,4.79,6.15,4.72s4.78-1.92,4.62-5.12c-.11-2.15-.6-4.31-.43-6.43.15-1.75.69-4.64,1.64-4.91a15.51,15.51,0,0,1,7.65.18c.53.13.61,3.44.34,5.2-1.49,9.89-1.78,19.73.21,29.61.28,1.4-.6,4.36-.93,4.36a88.19,88.19,0,0,1-9.56-.87,19.1,19.1,0,0,1,1.06-4.13c2-4,1.49-9.26-1.76-12.2-1.08-1-3.5-2-4.26-1.5a12.37,12.37,0,0,0-4.52,5.35c-.71,1.85-.2,4.27.13,6.39A58.3,58.3,0,0,0,910.05,797Z"/><path class="cls-1" d="M656.21,286.71c2.76-1.82,15.17-1.5,18.2,1.17-4.78,2.15-4.41,6.24-4.29,10.45.19,6.32,0,12.66,0,19,0,2.85-.93,6.21,3.14,7.48,4.64,1.45,10.15.3,12.22-3.1,1.62-2.67,2.49-5.8,4.09-8.49.76-1.28,2.43-2,3.69-3,.4,1.46,1.24,3,1.11,4.36-.34,3.58-1.3,7.09-1.67,10.66-.3,2.94-1.25,4.71-4.52,4.65q-9.72-.17-19.44-.15a87.33,87.33,0,0,0-8.87.31c-2.79.29-4.13-.27-3.62-3.46.91-5.65,1.77-11.32,2.24-17a78.14,78.14,0,0,0,0-13C658.24,293.49,657.12,290.47,656.21,286.71Z"/><path class="cls-1" d="M893,723.4c1.85,7.73-2.8,12.82-7.4,17.57-6.57,6.78-15.7,5.29-20.94-3-7-11-4.9-24,5-32.4,3.31-2.78,6.49-6.66,11.15-3.62a30.23,30.23,0,0,1,9.21,8.83c2.23,3.6,2.85,8.19,4.18,12.34Zm-8.53-.35c0-2.66.86-5.75-.2-7.89a18.09,18.09,0,0,0-6.9-7.58c-1-.57-5,2.5-6.45,4.68-5.23,7.6-3.52,15.57.18,23.17,2.19,4.5,5.81,4.6,9.69,1.43C885.45,733,884.44,728,884.44,723.05Z"/><path class="cls-1" d="M960.63,786.76c-.16,3.06.3,6.36-.75,9.09-.45,1.16-4,1.46-6.2,1.54-5.71.2-11.43.07-17.68.07,3.71-12,2.68-23.14,1.57-34.28-.55-5.59-.47-6,5.26-6,3.83,0,7.67-.2,11.48.05,2,.13,5.26.58,5.64,1.68,1,2.79.62,6,.79,9.06-3.67-2.19-6.16-4.53-9-5.2-4.32-1-5,2.55-5.33,6s.48,5.5,4.47,5.46c1.33,0,2.67,1,4,1.59-1,1.35-1.8,3.29-3.18,4-5.46,2.69-7.06,7-3.94,11.85,2,3.05,4.29,3.59,6.82.7,1.6-1.83,3-3.82,4.51-5.74Z"/><path class="cls-1" d="M368.24,586.43c2.74-2.2,6.16-4.18,8.56-7,4.22-5,17.43-4.13,22.05,1.85,3.16,4.1-1.3,17.06-6.2,18.52-10.24,3-14.27,1.3-19.84-8.11C371.52,589.49,369.44,587.78,368.24,586.43Z"/><path class="cls-1" d="M883.18,797.2H871c3.18-10.34,2.68-20.5,2-30.66-.27-4.15-2.12-4.06-5.31-2.32-1.38.75-3.57,0-5.4,0,.59-1.89.75-4.13,1.91-5.56.84-1,3-1.37,4.57-1.41,6.15-.15,12.32-.16,18.47,0a6.48,6.48,0,0,1,5.44,9.92c-1.82,2.84-3.37,1.1-4.94-.81-1.08-1.3-2.8-2.06-4.23-3.06-.66,1.69-1.81,3.36-1.89,5.08-.23,5.15-.22,10.33,0,15.48C881.91,788,882.6,792.17,883.18,797.2Z"/><path class="cls-1" d="M902,743.51c-6.22-.21-5.39-.66-4.79-6.66a154.62,154.62,0,0,0-.21-28.94c-.39-4.52-.67-5.6,3.88-5a21.83,21.83,0,0,1,6.3,1.34c2.81,1.32,4.79,1.87,7.44-.8,2.21-2.24,5.16-1.25,6.31,1.9a14.67,14.67,0,0,1,.55,5.88c-.08,1.1-1.08,2.14-1.67,3.2-1-.68-2.31-1.15-2.91-2.08-2-3.08-4.43-4.18-8-3-3.09,1.05-3.21,3.29-3.07,6,.18,3.62,1.88,5.13,5.51,5.75,1.72.29,3.09,2.68,4.62,4.13-1.74.6-3.47,1.7-5.2,1.7-3.6,0-5.52.94-4.51,4.94.44,1.77.79,3.57,1.12,5.37C908.47,743.12,908,743.71,902,743.51Z"/><path class="cls-1" d="M341.86,642.74c-.51,3-.91,6.73-1.19,6.72a74.48,74.48,0,0,1-9.58-1.31l-.07-2.09Z"/><path class="cls-1" d="M343.13,638.35c3.32-1.67,6.57-3.5,10-4.9,1.07-.43,2.61.29,3.93.49-.95,1.08-1.72,2.74-2.9,3.12-3.49,1.13-7.13,1.75-10.71,2.57C343.34,639.2,343.24,638.77,343.13,638.35Z"/><path class="cls-1" d="M1027,307.23l-7.14,7.42c-1.62-2.31-4.64-4.71-4.49-6.9.16-2.49,3.15-4.79,4.91-7.17Z"/><path class="cls-1" d="M876.72,719.43c1.62,2.09,3.33,3.33,3.36,4.63,0,1-2.21,3.12-3,2.93a5.53,5.53,0,0,1-3.38-3.29C873.4,722.92,875.18,721.47,876.72,719.43Z"/></g></g></svg>