<svg xmlns="http://www.w3.org/2000/svg" viewBox="0 0 897.08 529.08"><defs><style>.cls-1{fill:#050505;}</style></defs><title>Recurso 13</title><g id="Capa_2" data-name="Capa 2"><g id="Capa_1-2" data-name="Capa 1"><path class="cls-1" d="M449.48,529.08h-1c-.33-.34-.66-.67-1-1L445.62,524a94.56,94.56,0,0,0-5.92-16.14c-3-9.87-6.66-19.51-10.62-29a76.87,76.87,0,0,0-5.4-14.7q-2.13-6-4.24-11.9l.23-4a.87.87,0,0,0,.27-.91c1.79-4.56,5.67-8.07,6.57-13.08a43.77,43.77,0,0,0,4.58-14.89c.65-5.1,1.36-10.2-.94-15.12-2.12-6.35-6.87-10.64-11.69-14.87-4.63-4.93-8.87-10.36-15.89-12.18-1.23-1.35-2.41-2.77-4.44-2.9-2.54-2.89-6.13-3.8-9.52-5.08a14.09,14.09,0,0,0-1.12-.95c-4.84-3.29-4.75-3.14.12-6.28a40.49,40.49,0,0,0,14.69-17.61l10.23-29.91,6.76-14.07c.17-.6.35-1.2.52-1.81l9-13.9a9.54,9.54,0,0,0,3.51-4c4.34-8.41,8.61-16.85,11.08-26,2.93-3.65,2.23-8.91,5.18-13.23,4.08,10.37,6.28,20.54,11.7,29.42.61,2.54,1.21,5.08,3.12,7,1,2.67,2.15,5.22,4.76,6.76,6.56,9.34,11.43,19.6,16.29,29.88l5.79,16.22c.85,3.16.9,6.6,3.13,9.31a9.21,9.21,0,0,0,2,5.44,36.94,36.94,0,0,0,15.38,17.4c3,1.79,3.08,3.08-.09,4.61a16.65,16.65,0,0,0-2.39,1.68,32.6,32.6,0,0,0-9.9,5.2c-2.11.31-3.15,2.31-4.94,3.12-6.42,2.17-10.69,7.06-15,11.9-5,4.17-9.5,8.7-11.75,15-2.15,5-1.51,10.12-.82,15.25a41.55,41.55,0,0,0,4.66,14.68c.17,2.75,1.84,4.81,3.18,7.06,2.34,3.94,4.8,7.89,3.56,12.84-2.08,3-3,6.52-4,10a90.47,90.47,0,0,0-5.86,16c-4.26,9.42-7.33,19.28-10.82,29-1.87,4.94-4.24,9.69-5.31,14.91A9.26,9.26,0,0,0,449.48,529.08Z"/><path class="cls-1" d="M447.49,0h2c6.08,10.36,13,20.16,19.9,30q3.89,6,7.79,12.05c.89,1.51,1.09,3.53,3.15,4.15,1.91,5.21,5.44,9.41,8.68,13.79,1.23,2.2,2.26,4.54,4.39,6.08,1.16,3.41,3.51,6.07,5.59,8.9a81.07,81.07,0,0,0,9.34,14.19c.49,2.86,3.08,4.51,4.06,7.09s5,4.66,4.09,6.66c-1.26,2.63-5.42.33-8.13,1.44H493.51a66.57,66.57,0,0,0-15.13,0H463.55a66.57,66.57,0,0,0-15.13,0H433.6a66.66,66.66,0,0,0-15.14,0H403.64a66.57,66.57,0,0,0-15.13,0l-8-.23c-.9-2.09.89-3.29,1.7-4.74,1.63-2.91,3.53-5.69,5.32-8.52a4.89,4.89,0,0,0,1.9-3A59,59,0,0,0,397.85,75l20.31-30,1.28-2.1L427.6,30c3-4,4.84-9.07,7.81-12.61A149.07,149.07,0,0,0,447.49,0Z"/><path class="cls-1" d="M572.31,529.08h-2c-.9-2.05,0-3.74.92-5.52,2.38-4.78,4.65-9.62,7-14.43,2.64-5.28,5.33-10.54,7.9-15.86,1.49-3.08.07-3.82-2.8-3.13H538.36c-1.65-.07-3.3,0-4.93-.23-4-.46-4.74,1-2.68,4.26,2.1,6.28,4.29,12.53,6.91,18.62.77,1.79,3.09,4.13-.2,6-9-8.69-17.5-17.8-26.74-26.24-4-3.64-9-7.31-10.3-13.37.88-4.45,3.37-7.28,8-8a26.59,26.59,0,0,0,4.87.16c2.59-.39,6.27,1.68,7.54-1.23,1.07-2.43-1.76-4.84-3.35-7q-4.34-7.12-8.68-14.25l-9.13-14.72c-1.85-3.16-3.48-6.47-6.07-9.15q-1.2-2.84-2.41-5.67c0-3.12.12-6.19,2.33-8.72l7.48-6.22,7.48-.57,1.94.16,1,.18a3.16,3.16,0,0,0,1,.2A17,17,0,0,1,521.12,415a9.88,9.88,0,0,0,2.21,4.33,107.8,107.8,0,0,0,7.14,14.95q6.87,15,13.75,30c1.28,4.62,3.22,8.37,9.11,6.93h59.92c.82.07,1.65.19,2.47.18,4,0,7.82.66,9.37,4.91s.18,7.75-3.21,10.61c-2.9,2.45-5.74,5-8.6,7.45-8,6.57-16,13.09-23.94,19.73C583.54,518.92,577.4,523.41,572.31,529.08Z"/><path class="cls-1" d="M326.66,529.08h-2a2.25,2.25,0,0,0-1.12-2q-19.4-16-38.75-31.95c-3-2.55-5.9-5.14-8.91-7.64-3.6-3-5.56-6.67-3.89-11.25s5.56-5.12,9.77-4.84a11.81,11.81,0,0,0,1.95-.19h59.92c5.9,1.43,7.71-2.52,9.15-6.95,4.74-9.93,9.76-19.73,13.73-30a80.32,80.32,0,0,0,7-15c3.42-5.14,4.23-12.19,10.92-15l4.2-.49c11,.88,16.59,5.6,17.23,14.48-.78,2-1.56,4.07-2.33,6.1-2.11,3.22-4.78,6.11-6,9.87-3.8,4.43-6.34,9.68-9.45,14.56l-9.34,15.42c-.49.65-1,1.26-1.45,1.95-.83,1.35-2.24,2.76-1.14,4.4.92,1.38,2.7.77,4.11.78,2.76,0,5.52-.1,8.28-.17q6.78,1.21,8,8c-.77,3.19-2.79,5.49-5.09,7.73-6.3,6.12-12.32,12.52-18.68,18.57-4.65,4.43-8.58,9.65-14.11,13.14-1.51-2,0-3.69.6-5.44,2.27-6.26,4.58-12.51,6.87-18.77,1.72-3,1.84-5-2.56-4.47-1.65.19-3.31.15-5,.22H313.68c-1.75,0-5-1-2.9,2.62,3,5.29,4.36,11.37,8,16.33,1.49,3.13,3.09,6.21,4.42,9.4C324.62,521.92,327.6,524.86,326.66,529.08Z"/><path class="cls-1" d="M882.85,36.84c2.6-.89,5.16-2,7.82-2.63,2-.49,4.21-2.56,5.9-.83,1.44,1.47-.57,3.61-1,5.46-.42,2.06-1.1,4.07-1.67,6.1a97,97,0,0,0-5,14.94,102.53,102.53,0,0,0-5.09,15c-3.35,10.33-7.67,20.34-10.15,30.95-2.47,4.36-3.68,9.15-4.84,14-3,7.62-4,17.31-16,15.84l-14.93,2.23-14.94,2-15.09,2.46c-5,.64-10.1.68-14.95,2.3A64.31,64.31,0,0,0,779,146.74c-10.08.67-20,2.82-29.95,4.16l-1.26.52-.1,0L733,153.29l-15.83,2.6c-4.77.08-9.41,1.07-14.06,1.93L688.18,160a98.52,98.52,0,0,0-15.08,2.25l-11.84,1.65a1.89,1.89,0,0,0-2.1.68,88.34,88.34,0,0,0-15.93,2.25,14.06,14.06,0,0,0-4.82.55c-9.88,2-9.88,2-9.19,12.33-.06,3.3,0,6.6-.22,9.89s.7,5,4.59,5.22c8.21.44,16.39,1.49,24.58,2.28,5,.74,9.93,1.85,15,1.49,4.87,1.44,9.91,1.18,14.89,1.58l14.11,1.35,14.48,1.6a103.83,103.83,0,0,0,16.41,1.56c4.39,1.67,9,.77,13.55,1.44,5.45.74,10.87,1.78,16.41,1.56,4.41,1.47,9,.94,13.55,1.43L808,212.46c5.3.58,10.57,1.64,16,1.17,4.56,1.46,9.33,1.25,14,1.83,4.62,3.15-.54,5.84-.42,8.78a84.26,84.26,0,0,0-7.76,15.3l-15.57,30-14.43,28.67c-1.63,1.69-3.34,1.37-5.36.58-5.34-2.09-10.76-3.93-16.16-5.87l-14.2-5.49L755,283.74l-6.86-2.39-15-5.74a71.79,71.79,0,0,0-13.72-5.29c-.56-.91-1.48-.76-2.35-.78-4-2.44-8.42-3.71-12.83-5a108.65,108.65,0,0,0-15.95-6.08q-14.15-6.17-28.78-11.05a107.55,107.55,0,0,0-15.87-6.14l-.1,0-1.25-.59-3.72-1.27c-4.21-1.81-8.45-3.58-12.64-5.44-2.36-1.05-3.63-.14-4.61,2-2.78,6.13-5.68,12.21-8.52,18.3-.7,1.11-.13,1.93.7,2.54,4.92,3.59,9.87,7.13,14.81,10.69a3.55,3.55,0,0,0,2.7,2.08,75.46,75.46,0,0,0,12.2,9.2,28.54,28.54,0,0,0,7.77,5.77,25,25,0,0,0,6.29,4.91c10.12,7.95,20.26,15.85,30.93,23.05a4.51,4.51,0,0,0,2.74,2.07,80.06,80.06,0,0,0,12.1,9.12,39.87,39.87,0,0,0,7.87,5.86l7.31,5.64c8.23,6.13,16.34,12.45,24.78,18.3,3.64,2.53,3.39,4,.05,6.31-6.79,4.7-13.89,9-20.16,14.42-2.39.67-3.92,2.65-5.94,3.88l-28.64,19.67c-3.73-1.94-5.12-6.17-8.39-8.56-1.86-2.66-3.65-5.38-6.5-7.14v.17c.14-.95-.48-1.42-1.18-1.83a20.87,20.87,0,0,0-5.19-6.07l-8.7-10.31-5-5.8L644,347.47a2.91,2.91,0,0,0-2-2.05,137.94,137.94,0,0,0-13.72-16c-2-2.43-3.88-4.92-5.92-7.29-9-10.41-18-20.77-26.9-31.2-2.47-2.89-4.56-3.11-7.3-.14a154.82,154.82,0,0,1-11.42,11.06c-1.56,1.37-1.13,2.45-.51,3.86q5.26,12,10.49,24.07l6.41,14.7,4.23,9.9q1.14,2.55,2.27,5.1,3.32,7.46,6.64,14.9c2,5.19,3.9,10.47,6.82,15.26a1.06,1.06,0,0,0,.25.68,77.56,77.56,0,0,0,6,14c.56,1.54,1,3.12,1.69,4.6,3.51,7.84,3.52,7.83-4.71,9.52a3.92,3.92,0,0,0-3.09.94,89,89,0,0,0-15,2.76,71.1,71.1,0,0,0-15,3,58,58,0,0,0-15,2.9c-2.62.32-3.93-.67-4.13-3.47a50.7,50.7,0,0,0-1.33-6.71q-1.26-6.75-2.51-13.51a65.49,65.49,0,0,0-2.9-15c-.8-10.13-3.5-19.93-5.09-29.93-.78-5-1.19-10.14-2.9-15,0-4.44-1.41-8.65-2.1-13,.06-.8.22-1.62-.57-2.2l0-.14c-.74-5.53-1.31-5.79-8.36-3.81H523.42a44,44,0,0,1-15-8.87,3,3,0,0,0-1.74-2.12,24.67,24.67,0,0,1-5.27-14.81c-.6-5.22.89-10.07,2.57-14.89l5.48-8,6.85-6.19,7.1-3.67c5.18-1.14,10.38-2.2,14.94-5.15a52.53,52.53,0,0,0,14-7l1.13-.74c6.79-3.51,11.13-9.79,16.62-14.76a46.06,46.06,0,0,0,10.93-14.52l3.52-5.85c2.85-2.38,3.12-6,4.47-9.13,2.2-5.08,3.14-10.49,4.14-15.88,1.47-4.58,2.69-9.18,1.93-14.06V149.71q-1.12-7.64-2.26-15.26-1.79-7.33-3.56-14.66c-2.82-10.45-6.28-20.65-12-29.94-.57-4.44-4.65-7.71-4.65-13.42l10.68,9.33,4,4a93.67,93.67,0,0,0,10.9,11l2.74,4.1c3.55,5.71,7.19,11.36,10.63,17.13C618,132.71,618,132.74,629.47,127a291.68,291.68,0,0,0,28.7-10.28c5.88-1.35,11.41-3.75,17-5.86,9.41-3.06,18.78-6.25,27.91-10.11a71.3,71.3,0,0,0,15.08-5.31c5-1.47,10-2.68,14.46-5.51l.16.19L733,90a72.53,72.53,0,0,0,15-5.24l16.24-5.7A43.44,43.44,0,0,0,774,75.71L778.06,74c5.21-1.08,10-3.22,14.92-5.24,5.27-1.1,10.07-3.5,15.08-5.32l7.83-2.74,7.1-2.68,14.93-5.23c10-3.56,20.34-6.28,30-10.89C873.18,41.13,877.87,38.56,882.85,36.84Z"/><path class="cls-1" d="M29.07,122.79a4.15,4.15,0,0,0-1-3c-1-5.23-3-10.11-5-15a90.37,90.37,0,0,0-5.1-15c-.67-4.16-2.32-8-3.91-11.86L13,74.85Q10.56,67.38,8.1,59.9T3,44.91c-.94-3.12-1.95-6.21-2.8-9.35C-.46,33.12.47,32.14,3,33l9.69,3.33L29,42.06,59,52.81,74,58l30,10.75c4.63,1.83,9.14,4,14,5a9.05,9.05,0,0,0,4.44,1.38c3.51,2.35,7.55,3.32,11.54,4.45,4.91,1.9,9.73,4,14.92,5.14,4.89,2,9.7,4.22,14.93,5.23l3,1c3.55,2.41,7.71,3.18,11.71,4.41a97.26,97.26,0,0,0,15.27,5.33c9.76,3.94,19.63,7.58,29.7,10.62,5.25,2.35,10.55,4.55,16.24,5.61a226.44,226.44,0,0,0,28.71,10.36c2.59,1,5.2,2,7.77,3.13a3.65,3.65,0,0,0,5.07-1.71c4.28-8.34,9.84-15.89,14.71-23.87l2.67-4.16a93.25,93.25,0,0,0,10.78-10.9,10,10,0,0,0,4.17-4.17c3.62-2.44,6.05-6.53,10.76-8.12-.57,4.89-4,8.08-4.73,12.32-5.81,9.25-8.85,19.62-12.12,29.9l-3.3,13.58q-1.2,8.24-2.39,16.45v29.95c-.81,4.69.57,9.12,1.69,13.57,2.28,9,3.69,18.38,9.21,26.28l3.27,5.1A39.73,39.73,0,0,0,328.3,240c4.57,5.18,8.94,10.59,15.25,13.86l1.19.69a46.41,46.41,0,0,0,13.85,6.89c4.14,3.2,9.21,3.76,14,5l6.92,3.11,9,8,4.48,7.19a30.88,30.88,0,0,1,2.53,14.69,25.25,25.25,0,0,1-5.28,14.9,7.26,7.26,0,0,0-2.77,3,46.53,46.53,0,0,1-14,7.89c-5,.16-9.91.78-14.86,0-7-2-7.63-1.72-8.49,4l-2.55,15.06c-1.85,4.81-2,9.94-2.83,14.94a280.57,280.57,0,0,0-5,28.05,108.65,108.65,0,0,0-3.06,16.88q-1.42,7.51-2.84,15c-.4,1.92-.94,3.81-1.16,5.74-.29,2.64-1.78,3.23-4.07,2.8l-14-2.59c-5.36-.85-10.45-3.11-16-3a94.24,94.24,0,0,0-15-2.89l-2.47-.37a12.82,12.82,0,0,0-3.2-1.07c-5.56-.32-4.89-3.25-3.13-6.89,1.06-2.18,1.83-4.5,2.73-6.76,2.36-4.81,4.93-9.54,6.28-14.79,3-4.68,4.76-10,6.7-15.11a64,64,0,0,0,6-14c1.14-1.66,2.25-3.33,2.38-5.43a35.19,35.19,0,0,0,4.7-10.5,83.73,83.73,0,0,0,6.57-14.89c3.6-8.2,7.16-16.42,10.85-24.58.76-1.7-.16-2.39-1.15-3.33-3.61-3.43-7.38-6.72-10.7-10.42-2.89-3.19-5.11-3.52-8-.07-10.8,12.8-21.73,25.49-32.62,38.22l-12.95,15-1.89,2.11-11,12.89-4.16,4.71-8.74,10.3-6.08,7-6.8,8c-3.06,2.48-4.75,6.27-8.11,8.46-1.67-1-3.4-1.94-5-3q-12.36-8.44-24.68-17c-1.66-2.12-4-3.26-6.32-4.46a33.09,33.09,0,0,0-8.82-6.29,63.17,63.17,0,0,0-10.87-7.86c-2.45-1.82-2.54-3.22.19-5.17,8.63-6.17,17.06-12.61,25.56-18.94,2.45-1.8,5.23-3.19,7.22-5.59,2.73-1.73,5.58-3.31,7.77-5.77a73.42,73.42,0,0,0,12.21-9.2,3.4,3.4,0,0,0,2.72-2c10.61-7.29,20.83-15.11,30.89-23.14a21.89,21.89,0,0,0,6.32-4.74,38.85,38.85,0,0,0,7.86-5.86A82,82,0,0,0,266,269.69a4.59,4.59,0,0,0,2.74-2.08c4.64-3.34,9.29-6.66,13.91-10,1-.73,2.42-1.32,1.75-3l-7.62-15c-2.46-6.78-2.46-6.78-8.11-4.12a27.91,27.91,0,0,0-10.07,4.07l.05-.1a1.29,1.29,0,0,0-.89.27c-1.55-.1-2.8.71-4.12,1.33l-14.86,5.73c-10.09,3.68-20.22,7.24-30,11.66l-14.9,5.4c-4.43,1.86-9.23,2.86-13.3,5.58l-2,.59a104.44,104.44,0,0,0-14.68,5.66c-10.26,3.28-20.12,7.58-30.1,11.58a108,108,0,0,0-14.86,5.67c-3.83,1.43-7.6,3-11.5,4.24-3.19,1-6.17,3.33-9.86,2.05C92.93,288.66,87.49,278.58,82,268.5l-14.77-29c-2.1-4.79-4.12-9.62-7.24-13.86l-.25-1c-.11-3.08-5.59-5.73-.72-9.19l16-1.83c4.73.34,9.35-.58,14-1.17l28.93-3c5.34-.48,10.74-.47,16-1.82,5,.46,9.94-1.12,14.94-1.26l15-1.74c5.05.31,10-.88,15-1.26,4.66-.79,9.5-.27,14.06-1.84,4.37.46,8.63-.63,12.94-1a108.75,108.75,0,0,0,18-2,206.67,206.67,0,0,0,27-2.88c1.47,0,2.95.09,4.42,0,13-.5,13-.51,12.75-13.57,0-.82-.12-1.63-.19-2.45.65-10.57.66-10.59-9.59-12.57a35.41,35.41,0,0,0-4.38-.31c-4.59-1.32-9.33-1.51-14-2-10.24-1.85-20.48-3.66-30.84-4.72l-15.08-2.26a83.83,83.83,0,0,0-15-2.1A80.09,80.09,0,0,0,164,153.48a73.88,73.88,0,0,0-15-2.19,285.27,285.27,0,0,0-29.1-4.39c-5.27-1-10.51-2.18-15.92-2.16-4.8-1.72-9.85-1.87-14.85-2.33L74,139.92l-14.07-2-15.88-2.31-10.94-2c-1.42-3.29-1.47-7.12-4-10l.16,0A.66.66,0,0,0,29.07,122.79Z"/><path class="cls-1" d="M584.3,209.63q-27.21-.1-54.41-.19c-25.29,0-50.59,0-75.88,0-1.42,0-3.25.75-4.19-.67-1.18-1.79.63-3.08,1.49-4.36,9-13.4,18.09-26.79,26.46-40.62l.7-.95c3.37-4.45,7-8.77,9.06-14A291.6,291.6,0,0,0,506.7,120a7,7,0,0,0,2.69-4.15c3.6-3,4.58-8,8.46-10.82,2.4,2,2.87,5.34,5.37,7.12,1.78,2.72,3,5.83,5.58,8a59.44,59.44,0,0,0,8.48,12.69,2.72,2.72,0,0,0,1.51,2.28,95.46,95.46,0,0,0,9.4,14.7c.78,2.72,3,4.51,4.38,6.85,1.7,2.82,3.14,5.82,5.61,8.12a124.93,124.93,0,0,0,10,15.1c2.8,5.66,6.6,10.67,10.26,15.77,1.08,1.72,2.16,3.45,3.25,5.17,1.45,2.82,4.52,4.88,4,8.61Z"/><path class="cls-1" d="M439.5,194.66c2.27,3.59,4.51,7.2,6.83,10.76,1.79,2.75,1.6,4.11-2.17,4.06-9.47-.13-18.94,0-28.42,0q-49.86,0-99.72,0c-1.69,0-4.06,1.07-5-.84s1.41-3.12,2.25-4.64c1.75-3.14,4.56-5.65,5.71-9.19,4-4.47,6.91-9.67,9.92-14.81,3.14-4.53,6.57-8.87,8.87-13.94,7.7-9.88,14.24-20.53,20.72-31.21.63-.08,1-.36,1-1.06q4.17-6.34,8.35-12.67c1.94-2.45,4.12-4.74,4.85-7.92.57-.24,1.15-.48,1-1.28V112q2.54-3.57,5.05-7.15l1.86.87,7.21,11a6.22,6.22,0,0,0,2.32,3.11q9.74,14.92,19.49,29.85a102.29,102.29,0,0,0,8.83,13.11l1.16,1.86C426.17,174.73,432.14,185.16,439.5,194.66Z"/></g></g></svg>